<?xml version="1.0" standalone="no"?>
<!DOCTYPE svg PUBLIC "-//W3C//DTD SVG 1.1//EN" "http://www.w3.org/Graphics/SVG/1.1/DTD/svg11.dtd" >
<svg>
<metadata>
Created by FontForge 20090622 at Mon Jul 10 02:54:20 2017
 By deploy user
Copyright (c) 1991 Adobe Systems Incorporated.  All Rights Reserved.Clearface Gothic is a trademark of Linotype-Hell AG and/or its subsidiaries.
</metadata>
<defs>
<font id="ClearfaceGothicLH-Roman" horiz-adv-x="518" >
  <font-face 
    font-family="ClearfaceGothic LH Roman"
    font-weight="400"
    font-stretch="normal"
    units-per-em="1000"
    panose-1="2 11 5 0 0 0 0 0 0 0"
    ascent="750"
    descent="-250"
    x-height="500"
    cap-height="714"
    bbox="-167 -250 1132 984"
    underline-thickness="50"
    underline-position="-50"
    unicode-range="U+0020-U+FB02"
  />
<missing-glyph horiz-adv-x="259" 
 />
    <glyph glyph-name=".notdef" horiz-adv-x="259" 
 />
    <glyph glyph-name=".null" horiz-adv-x="0" 
 />
    <glyph glyph-name="nonmarkingreturn" horiz-adv-x="333" 
 />
    <glyph glyph-name="space" unicode=" " horiz-adv-x="259" 
 />
    <glyph glyph-name="space" unicode="&#xa0;" horiz-adv-x="259" 
 />
    <glyph glyph-name="exclam" unicode="!" horiz-adv-x="296" 
d="M176 204h-54q-3 108 -13 209.5t-18.5 159.5t-8.5 66q0 35 19.5 57t49.5 22t49.5 -22t19.5 -57q0 -8 -9.5 -66t-20.5 -159.5t-14 -209.5zM82 59q0 29 20 49t49 20t49 -20t20 -49t-20 -49t-49 -20t-49 20t-20 49z" />
    <glyph glyph-name="quotedbl" unicode="&#x22;" horiz-adv-x="425" 
d="M244 442v272h80v-272h-80zM100 442v272h80v-272h-80z" />
    <glyph glyph-name="numbersign" unicode="#" 
d="M90 0h-92l66 190h-99l25 80h99l49 139h-99l25 80h99l66 189h92l-66 -189h105l64 189h94l-65 -189h100l-27 -80h-99l-48 -139h99l-26 -80h-99l-64 -190h-93l66 190h-106zM181 270h107l48 139h-106z" />
    <glyph glyph-name="dollar" unicode="$" 
d="M398 709v-137q-46 51 -112 56v-188q46 -21 71 -35.5t54 -39.5t42 -58t13 -78q0 -87 -48 -148t-132 -85v-82h-64v72q-86 -2 -174 38v152q56 -49 94 -69.5t80 -24.5v230q-52 26 -77 41t-52 38t-37 49.5t-10 62.5q0 76 52 134.5t124 78.5v52h64v-42q2 0 8 1t11 1
q55 0 93 -19zM286 280v-186q25 10 43.5 34t18.5 57q0 24 -11.5 44.5t-22 29.5t-28.5 21zM222 468v155q-58 -15 -58 -76q0 -49 58 -79z" />
    <glyph glyph-name="percent" unicode="%" horiz-adv-x="833" 
d="M174 684q62 0 106 -58.5t44 -170.5t-44 -170.5t-106 -58.5t-106 58.5t-44 170.5t44 170.5t106 58.5zM174 628q-60 0 -60 -173t60 -173t60 173t-60 173zM658 394q-60 0 -60 -173t60 -173t60 173t-60 173zM658 450q62 0 106 -58.5t44 -170.5t-44 -170.5t-106 -58.5
t-106 58.5t-44 170.5t44 170.5t106 58.5zM204 -12l361 702h61l-361 -702h-61z" />
    <glyph glyph-name="ampersand" unicode="&#x26;" horiz-adv-x="629" 
d="M223 436l-93 193v73h343v-97q-120 9 -208 9l177 -355q47 66 60 159l102 -15q-18 -118 -108 -234l105 -169h-138l-43 72q-88 -86 -189 -86q-89 0 -147 57t-58 151q0 173 197 242zM375 156l-107 197q-120 -40 -120 -140q0 -53 30 -88t81 -35q62 0 116 66z" />
    <glyph glyph-name="quotesingle" unicode="'" horiz-adv-x="285" 
d="M102 442v272h80v-272h-80z" />
    <glyph glyph-name="parenleft" unicode="(" horiz-adv-x="315" 
d="M269 724l38 -44q-124 -143 -124 -387q0 -133 26 -222t97 -191l-38 -44q-65 67 -105.5 124.5t-68 140t-27.5 179.5q0 131 52 248.5t150 195.5z" />
    <glyph glyph-name="parenright" unicode=")" horiz-adv-x="315" 
d="M46 -164l-38 44q124 143 124 387q0 133 -26 222t-97 191l38 44q65 -67 105.5 -124.5t68 -140t27.5 -179.5q0 -131 -52 -248.5t-150 -195.5z" />
    <glyph glyph-name="asterisk" unicode="*" horiz-adv-x="333" 
d="M10 588l26 59l98 -46v113h64v-113l99 46l27 -59l-105 -43l79 -77l-47 -45l-85 88l-79 -88l-48 45l75 77z" />
    <glyph glyph-name="plus" unicode="+" horiz-adv-x="600" 
d="M259 291v209h82v-209h209v-82h-209v-209h-82v209h-209v82h209z" />
    <glyph glyph-name="comma" unicode="," horiz-adv-x="259" 
d="M73 -154l-29 34q14 10 28.5 24.5t31.5 41.5t16 50q-27 6 -43.5 25t-16.5 43q0 27 19 45.5t48 18.5q32 0 52.5 -25t20.5 -60q0 -49 -31 -100.5t-96 -96.5z" />
    <glyph glyph-name="hyphen" unicode="-" horiz-adv-x="352" 
d="M27 294h298v-88h-298v88z" />
    <glyph glyph-name="hyphen" unicode="&#xad;" horiz-adv-x="352" 
d="M27 294h298v-88h-298v88z" />
    <glyph glyph-name="period" unicode="." horiz-adv-x="259" 
d="M60 59q0 29 20 49t49 20t49 -20t20 -49t-20 -49t-49 -20t-49 20t-20 49z" />
    <glyph glyph-name="slash" unicode="/" horiz-adv-x="444" 
d="M426 728l-319 -742h-83l319 742h83z" />
    <glyph glyph-name="zero" unicode="0" 
d="M259 690q95 0 161 -93.5t66 -257.5t-66 -257.5t-161 -93.5t-161 93.5t-66 257.5t66 257.5t161 93.5zM259 616q-54 0 -76.5 -61.5t-22.5 -215.5t22.5 -215.5t76.5 -61.5t76.5 61.5t22.5 215.5t-22.5 215.5t-76.5 61.5z" />
    <glyph glyph-name="one" unicode="1" 
d="M79 572v62l245 62v-620h112v-76h-348v76h118v496h-127z" />
    <glyph glyph-name="two" unicode="2" 
d="M38 0v104q11 14 105.5 118.5t144.5 177.5t50 123q0 35 -26 61t-68 26q-38 0 -73 -20.5t-53 -41.5t-39 -52l-17 136q83 58 192 58q103 0 161.5 -52t58.5 -124q0 -52 -39.5 -116t-82.5 -107.5t-110.5 -105t-86.5 -81.5h220q29 0 85 6v-110h-422z" />
    <glyph glyph-name="three" unicode="3" 
d="M32 25v138q45 -48 85 -70.5t87 -22.5q52 0 86 31.5t34 91.5q0 58 -30 90.5t-110 32.5h-46v89q3 0 18 -0.5t26 -0.5q62 3 97 25.5t35 81.5q0 47 -28 74t-72 27q-79 0 -161 -79v118q66 39 161 39q91 0 156.5 -43.5t65.5 -130.5q0 -47 -28 -91t-89 -58v-2q137 -47 137 -175
q0 -91 -70.5 -146.5t-187.5 -55.5q-86 0 -166 37z" />
    <glyph glyph-name="four" unicode="4" 
d="M292 154h-266v95q166 292 235 447h127q-49 -92 -132 -229.5t-142 -222.5h176v208l118 184q0 -46 -1 -137t-1 -136q0 -19 2 -119h90v-90h-91q0 -131 2 -154h-119q0 6 1 64t1 90z" />
    <glyph glyph-name="five" unicode="5" 
d="M46 35v142q84 -105 176 -105q56 0 92 40.5t36 100.5q0 52 -29.5 89.5t-85.5 37.5q-60 0 -106 -44l-60 28l18 354h199q101 0 148 10l-12 -110h-252l-8 -180q50 34 117 34q79 0 139 -54.5t60 -147.5q0 -99 -72 -170.5t-191 -71.5q-91 0 -169 47z" />
    <glyph glyph-name="six" unicode="6" 
d="M447 674v-128q-51 56 -107 56q-58 0 -106.5 -61t-57.5 -155l2 -2q46 54 124 54t133 -57t55 -153q0 -104 -67 -172t-159 -68q-100 0 -163 79t-63 211q0 170 95 291t224 121q49 0 90 -16zM164 272v-55q0 -74 28 -109.5t72 -35.5q39 0 68.5 36t29.5 107q0 57 -25 92t-70 35
q-59 0 -103 -70z" />
    <glyph glyph-name="seven" unicode="7" 
d="M32 562v116h426v-65q-178 -447 -214 -613h-153l260 582q-38 2 -61 2q-141 0 -258 -22z" />
    <glyph glyph-name="eight" unicode="8" 
d="M464 527q0 -92 -100 -150q54 -30 89 -81t35 -105q0 -97 -70 -150t-169 -53q-111 0 -168 53.5t-57 122.5q0 105 132 184q-98 77 -98 162q0 69 58.5 124.5t158.5 55.5q87 0 138 -47.5t51 -115.5zM366 523q0 36 -25.5 62.5t-72.5 26.5q-44 0 -72 -24.5t-28 -56.5
q0 -30 33.5 -60t86.5 -52q78 43 78 104zM370 167q0 44 -62.5 88.5t-84.5 44.5q-6 0 -26.5 -16t-41.5 -47.5t-21 -63.5q0 -42 33.5 -71.5t87.5 -29.5q52 0 83.5 27t31.5 68z" />
    <glyph glyph-name="nine" unicode="9" 
d="M69 4v128q51 -56 107 -56q58 0 106.5 61t57.5 155l-2 2q-46 -54 -124 -54t-133 57t-55 153q0 104 67 172t159 68q100 0 163 -79t63 -211q0 -170 -95 -291t-224 -121q-49 0 -90 16zM352 406v55q0 74 -28 109.5t-72 35.5q-39 0 -68.5 -36t-29.5 -107q0 -57 25 -92t70 -35
q59 0 103 70z" />
    <glyph glyph-name="colon" unicode=":" horiz-adv-x="259" 
d="M60 439q0 29 20 49t49 20t49 -20t20 -49t-20 -49t-49 -20t-49 20t-20 49zM60 59q0 29 20 49t49 20t49 -20t20 -49t-20 -49t-49 -20t-49 20t-20 49z" />
    <glyph glyph-name="semicolon" unicode=";" horiz-adv-x="259" 
d="M73 -154l-28 34q77 63 75 116q-27 6 -43.5 25t-16.5 43q0 27 19 45.5t48 18.5q32 0 52.5 -25t20.5 -60q0 -49 -31 -100.5t-96 -96.5zM60 439q0 29 20 49t49 20t49 -20t20 -49t-20 -49t-49 -20t-49 20t-20 49z" />
    <glyph glyph-name="less" unicode="&#x3c;" horiz-adv-x="600" 
d="M551 73v-81l-502 222v72l502 222v-81l-399 -177z" />
    <glyph glyph-name="equal" unicode="=" horiz-adv-x="600" 
d="M550 395v-82h-500v82h500zM550 187v-82h-500v82h500z" />
    <glyph glyph-name="greater" unicode="&#x3e;" horiz-adv-x="600" 
d="M49 73l400 177l-400 177v81l502 -222v-72l-502 -222v81z" />
    <glyph glyph-name="question" unicode="?" horiz-adv-x="333" 
d="M64 605v109q24 8 61 8q91 0 144 -59.5t53 -140.5q0 -116 -104 -182l-46 -29l-4 -103h-58v199q120 66 120 145q0 37 -22 63.5t-61 26.5q-46 0 -83 -37zM72 59q0 29 20 49t49 20t49 -20t20 -49t-20 -49t-49 -20t-49 20t-20 49z" />
    <glyph glyph-name="at" unicode="@" horiz-adv-x="800" 
d="M697 128l26 -35q-74 -54 -146 -80.5t-160 -26.5q-91 0 -165.5 30.5t-122 81.5t-73.5 115t-26 134q0 162 116 271.5t288 109.5q145 0 240.5 -82t95.5 -215q0 -109 -63.5 -186t-140.5 -77q-42 0 -63 23.5t-21 49.5q1 12 5 23l-2 2q-6 -13 -14 -26t-24.5 -31t-42.5 -29.5
t-58 -11.5q-60 0 -98 42.5t-38 111.5q0 89 58.5 164.5t141.5 75.5q39 0 72.5 -21.5t37.5 -72.5h2l22 78h74l-57 -190q-21 -68 -21 -91q0 -43 44 -43q53 0 96.5 64.5t43.5 147.5q0 111 -81.5 179.5t-208.5 68.5q-159 0 -258.5 -99.5t-99.5 -237.5q0 -59 22 -114.5t63.5 -100
t108.5 -71.5t150 -27q143 0 277 96zM292 317q0 -47 21 -71t54 -24q39 0 70.5 39.5t45 86.5t13.5 83q0 43 -21.5 60t-46.5 17q-56 0 -96 -63t-40 -128z" />
    <glyph glyph-name="A" unicode="A" horiz-adv-x="555" 
d="M190 714h136l224 -714h-139q-22 95 -48 168q-82 2 -101 2t-97 -2q-21 -69 -39 -168h-120l64.5 201l76 237l64.5 212zM267 260q4 0 72 2q-39 147 -72 242h-2q-10 -29 -26.5 -84.5l-30.5 -104t-16 -53.5q72 -2 75 -2z" />
    <glyph glyph-name="B" unicode="B" horiz-adv-x="555" 
d="M59 714h256q81 -2 133 -44.5t52 -120.5q0 -58 -33.5 -100.5t-89.5 -56.5v-2q149 -54 149 -194q0 -52 -20.5 -91.5t-55.5 -61.5t-75.5 -32.5t-84.5 -10.5h-229q0 52 1.5 157t1.5 157q0 310 -5 400zM236 630h-48q-4 -50 -4 -100q0 -48 4 -102q20 -2 36 -2q148 0 148 104
q0 51 -32 75.5t-104 24.5zM255 332h-67v-246q16 -2 63 -2q145 0 145 120q0 58 -41 94t-100 34z" />
    <glyph glyph-name="C" unicode="C" horiz-adv-x="500" 
d="M475 703v-137q-68 68 -137 68q-47 0 -82 -26t-54.5 -69t-28.5 -90t-9 -97q0 -127 50 -198.5t129 -71.5q68 0 120 57l45 -45q-26 -36 -79 -72t-117 -36q-52 0 -102 22.5t-91 63t-66 105.5t-25 143q0 58 13.5 115t42 109t67.5 91.5t94 63t118 23.5q71 0 112 -19z" />
    <glyph glyph-name="D" unicode="D" horiz-adv-x="574" 
d="M59 714h190q151 -3 222 -100t71 -256q0 -79 -16 -142.5t-50.5 -112.5t-93.5 -76t-140 -27h-184q4 232 4 349q0 182 -3 365zM410 361q0 150 -45 207.5t-142 57.5q-8 0 -18.5 -1t-14.5 -1q-4 -116 -4 -261q0 -45 1.5 -136t1.5 -136q24 -3 37 -3q64 0 102.5 22t60 83
t21.5 168z" />
    <glyph glyph-name="E" unicode="E" horiz-adv-x="500" 
d="M68 714h404v-107q-95 15 -210 15q-4 0 -62 -2q-2 -31 -2 -115q0 -38 2 -92l184 6v-108l-186 6q-3 -62 -3 -132q0 -47 3 -93q208 4 287 11v-103h-414q0 22 1.5 138t1.5 135q0 344 -6 441z" />
    <glyph glyph-name="F" unicode="F" horiz-adv-x="444" 
d="M61 714h380v-103q-93 7 -171 7q-51 0 -80 -3v-209l173 4v-111l-173 10q-2 -62 -2 -101q0 -52 4 -208h-141q15 132 15 382q0 62 -2.5 184.5t-2.5 147.5z" />
    <glyph glyph-name="G" unicode="G" horiz-adv-x="574" 
d="M486 714v-156q-64 76 -131 76q-86 0 -136.5 -86.5t-50.5 -205.5q0 -44 9 -87.5t28.5 -86t55.5 -68.5t84 -26q31 0 52 12q3 39 3 82q0 14 -1.5 89.5t-1.5 87.5h131q-8 -208 -5 -305q-49 -30 -86 -42t-99 -12q-140 0 -221 100t-81 244q0 170 104.5 284t246.5 114
q49 0 99 -14z" />
    <glyph glyph-name="H" unicode="H" horiz-adv-x="574" 
d="M61 714h136q-5 -50 -5 -296q4 0 34.5 -1.5t53.5 -1.5q16 0 99 3q0 9 0.5 58.5t0.5 57.5q0 112 -4 180h137q-9 -99 -9 -373q0 -250 6 -341h-134q4 55 4 160q0 78 -2 160q-45 3 -84 3q-40 0 -102 -3q-5 -62 -5 -135q0 -82 10 -185h-133q0 48 2 142t2 142q0 375 -7 430z" />
    <glyph glyph-name="I" unicode="I" horiz-adv-x="259" 
d="M61 714h138q-7 -122 -7 -340q0 -280 8 -374h-140q8 94 8 374q0 218 -7 340z" />
    <glyph glyph-name="J" unicode="J" horiz-adv-x="296" 
d="M94 714h132q-4 -96 -4 -215q0 -28 2 -171t2 -166q0 -176 -152 -176q-31 0 -71 14v96q15 -8 49 -8q29 0 39.5 19t10.5 64q0 179 -8 543z" />
    <glyph glyph-name="K" unicode="K" horiz-adv-x="537" 
d="M62 714h132q0 -14 -2 -80.5t-2 -93.5v-148h2q104 197 165 261.5t138 64.5v-115q-9 3 -25 3q-31 0 -60.5 -31.5t-69.5 -103.5l61 -145.5t79.5 -184t71.5 -141.5h-148l-140 348l-74 -129q0 -134 7 -219h-136q5 115 5 366q0 207 -4 348z" />
    <glyph glyph-name="L" unicode="L" horiz-adv-x="481" 
d="M59 714h140q-5 -137 -5 -203q0 -347 3 -419q179 0 263 12v-104h-395q5 129 5 310q0 149 -11 404z" />
    <glyph glyph-name="M" unicode="M" horiz-adv-x="703" 
d="M68 714h172l112 -383h2q70 234 107 383h177q-6 -158 -6 -280q0 -343 8 -434h-128q2 94 3.5 283t3.5 283h-2l-135 -450h-76q-60 218 -136 450h-2q2 -180 8 -542q0 -5 0.5 -14t0.5 -10h-117q12 189 12 444q0 52 -4 270z" />
    <glyph glyph-name="N" unicode="N" horiz-adv-x="574" 
d="M62 714h136q28 -51 55 -107l57 -123t49 -106q36 -75 47 -114l2 2q-4 86 -8.5 249l-5.5 199h115q-5 -165 -5 -426q0 -172 4 -288h-90q-11 27 -51 109l-164 341q-20 43 -27 78h-2q0 -327 8 -528h-117q3 110 3 378q0 230 -6 336z" />
    <glyph glyph-name="O" unicode="O" horiz-adv-x="592" 
d="M296 728q113 0 186.5 -103.5t73.5 -267.5t-73.5 -267.5t-186.5 -103.5t-186.5 103.5t-73.5 267.5t73.5 267.5t186.5 103.5zM296 640q-60 0 -94 -73.5t-34 -209.5t34 -209.5t94 -73.5t94 73.5t34 209.5t-34 209.5t-94 73.5z" />
    <glyph glyph-name="P" unicode="P" horiz-adv-x="500" 
d="M62 714h217q107 -3 169 -53t62 -154q0 -215 -274 -215q-9 0 -21 1.5t-25 1.5q-2 -27 -2 -130q0 -47 5 -165h-134q3 45 4.5 99.5t1.5 92t-0.5 102t-0.5 94.5q0 29 1 101t0.5 124t-3.5 101zM380 507q0 121 -149 121q-12 0 -39 -3q-4 -46 -4 -110q0 -77 4 -131q30 -2 38 -2
q150 0 150 125z" />
    <glyph glyph-name="Q" unicode="Q" horiz-adv-x="592" 
d="M552 -30l-14 -98q-75 0 -121 29t-79 90q-7 -2 -21 -4q-7 -1 -21 -1q-113 0 -186.5 103.5t-73.5 267.5t73.5 267.5t186.5 103.5t186.5 -103.5t73.5 -267.5q0 -106 -32 -189t-89 -130q39 -65 117 -68zM296 640q-60 0 -94 -73.5t-34 -209.5t34 -209.5t94 -73.5t94 73.5
t34 209.5t-34 209.5t-94 73.5z" />
    <glyph glyph-name="R" unicode="R" horiz-adv-x="537" 
d="M193 0h-131q4 37 4 240q0 384 -6 474h228q99 0 159.5 -48t60.5 -141q0 -41 -12 -73t-34 -52.5t-40.5 -31.5t-44.5 -22q9 -31 80.5 -188t71.5 -158h-150q-37 119 -120 325l-69 -2q0 -247 3 -323zM190 629v-212q3 0 19 -0.5t35 -0.5q60 0 97 26t37 79q0 65 -40 88t-109 23
q-13 0 -39 -3z" />
    <glyph glyph-name="S" unicode="S" horiz-adv-x="500" 
d="M47 24v152q54 -48 95.5 -70.5t87.5 -22.5q52 0 84.5 29t32.5 73q0 41 -31 70.5t-75.5 49.5t-88.5 42.5t-75 61t-31 92.5q0 94 73.5 160.5t181.5 66.5q55 0 96 -19v-137q-53 58 -130 58q-47 0 -75.5 -22.5t-28.5 -60.5q0 -31 22.5 -54t55.5 -36t72.5 -31.5t72.5 -39.5
t55.5 -62.5t22.5 -97.5q0 -107 -73.5 -173.5t-179.5 -66.5q-36 0 -86.5 11.5t-77.5 26.5z" />
    <glyph glyph-name="T" unicode="T" horiz-adv-x="463" 
d="M463 714v-104q-36 6 -165 14q0 -60 -1 -178t-1 -178q0 -134 6 -268h-138q8 312 8 382q0 215 -1 242q-87 -2 -166 -14v104h458z" />
    <glyph glyph-name="U" unicode="U" horiz-adv-x="555" 
d="M53 714h132l-3 -143v-375q0 -123 101 -123q55 0 82 37.5t27 145.5v352q0 60 -4 106h110q-2 -50 -4 -283.5t-2 -234.5q-5 -109 -59 -159.5t-164 -50.5q-111 0 -162 56t-51 208q0 38 1 113.5t1 113.5q0 147 -5 237z" />
    <glyph glyph-name="V" unicode="V" horiz-adv-x="500" 
d="M-2 714h140q17 -96 65.5 -294.5l53.5 -218.5h2q3 9 24.5 84.5l33 117.5l29 109.5t27 117.5t12.5 84h117q-108 -341 -193 -649l22 -65h-130l-32 114q-51 202 -171 600z" />
    <glyph glyph-name="W" unicode="W" horiz-adv-x="759" 
d="M20 714h126q67 -330 92 -499h2q57 241 96 380l-21 99l112 34q15 -61 30 -135t24.5 -125l26 -140l23.5 -129h2l35 161.5l41 190t30 163.5h111l-181 -714h-95l-94 419h-2q-16 -80 -54.5 -225t-50.5 -194h-95q-34 140 -91.5 408t-66.5 306z" />
    <glyph glyph-name="X" unicode="X" 
d="M8 714h152q9 -32 44.5 -112.5t54.5 -115.5q14 24 56 112.5t48 115.5h125l-173 -330q110 -232 203 -384h-150q-80 176 -123 263q-107 -231 -117 -263h-128q89 152 191 363q-26 56 -183 351z" />
    <glyph glyph-name="Y" unicode="Y" 
d="M0 714h147q12 -39 34.5 -93l50.5 -117t39 -90l40.5 93.5l47.5 111.5t37 95h125l-111 -215.5t-90 -186.5q0 -217 5 -312h-126q1 99 1 298l-61 131l-73 156t-66 129z" />
    <glyph glyph-name="Z" unicode="Z" horiz-adv-x="481" 
d="M28 0v67l273 553q-181 0 -251 -13v107h401v-62l-276 -558q116 0 279 7v-101h-426z" />
    <glyph glyph-name="bracketleft" unicode="[" horiz-adv-x="259" 
d="M180 598v-632q0 -34 26 -34h29v-82h-49q-65 0 -90.5 36t-25.5 99v594q0 63 25.5 99t90.5 36h49v-82h-29q-26 0 -26 -34z" />
    <glyph glyph-name="backslash" unicode="\" horiz-adv-x="444" 
d="M343 -14l-319 742h83l319 -742h-83z" />
    <glyph glyph-name="bracketright" unicode="]" horiz-adv-x="259" 
d="M79 -34v632q0 34 -26 34h-29v82h49q65 0 90.5 -36t25.5 -99v-594q0 -63 -25.5 -99t-90.5 -36h-49v82h29q26 0 26 34z" />
    <glyph glyph-name="asciicircum" unicode="^" horiz-adv-x="600" 
d="M140 264h-84l205 414h76l207 -414h-84l-162 328z" />
    <glyph glyph-name="underscore" unicode="_" horiz-adv-x="500" 
d="M0 -125v50h500v-50h-500z" />
    <glyph glyph-name="grave" unicode="`" horiz-adv-x="241" 
d="M105 718l91 -144h-83l-143 144h135z" />
    <glyph glyph-name="a" unicode="a" horiz-adv-x="444" 
d="M411 0h-105q-14 15 -21 39q-22 -18 -35 -26.5t-37 -17.5t-49 -9q-65 0 -102.5 44.5t-37.5 102.5q0 41 19 75t42.5 54.5t65 39.5t64 26l62.5 19q-11 85 -94 85q-41 0 -110 -36v118q42 4 68 4q51 0 93.5 -9t78.5 -29.5t56.5 -58.5t20.5 -91v-177q0 -72 21 -153zM280 109
v154q-66 -8 -103 -39t-37 -76q0 -34 21 -53t50 -19q44 0 69 33z" />
    <glyph glyph-name="b" unicode="b" horiz-adv-x="481" 
d="M57 714h119q-1 -23 -1 -96v-142q59 38 105 38q74 0 123 -66t49 -176q0 -113 -54.5 -199.5t-138.5 -86.5q-57 0 -119 48l-45 -48l-38 22q9 74 9 248q0 233 -9 458zM176 397v-141q0 -123 2 -158q7 -10 25 -18t34 -8q41 0 69 43t28 127q0 91 -32 136.5t-72 45.5
q-30 0 -54 -27z" />
    <glyph glyph-name="c" unicode="c" horiz-adv-x="389" 
d="M355 510v-125q-32 37 -87 37q-43 0 -79.5 -39t-36.5 -129q0 -50 14 -87.5t36 -56.5t43 -27.5t41 -8.5q46 0 83 37l37 -50q-24 -28 -69.5 -51.5t-93.5 -23.5q-93 0 -151 72t-58 169q0 111 80.5 199t200.5 88q22 0 40 -4z" />
    <glyph glyph-name="d" unicode="d" horiz-adv-x="463" 
d="M297 714h121q-2 -23 -2 -137v-430q0 -105 14 -147h-113l-8 40q-64 -54 -118 -54q-71 0 -116 62t-45 160q0 69 23.5 136.5t78 118.5t127.5 51q24 0 45 -8v86q0 43 -7 122zM304 118v225q0 69 -1 79q-10 12 -34 12q-57 0 -91 -62t-34 -143q0 -61 22.5 -104t67.5 -43
q39 0 70 36z" />
    <glyph glyph-name="e" unicode="e" horiz-adv-x="426" 
d="M404 270l-245 -84q2 -14 8 -30t17.5 -35.5t33 -32t49.5 -12.5q50 0 101 45l42 -47q-75 -88 -170 -88q-87 0 -147.5 70.5t-60.5 181.5q0 108 57 192t143 84q163 0 172 -244zM148 273l87 28q34 11 46.5 22t12.5 32q0 35 -19 60t-44 25q-33 0 -57.5 -38t-25.5 -129z" />
    <glyph glyph-name="f" unicode="f" horiz-adv-x="259" 
d="M274 716v-82q-18 6 -35 6q-24 0 -38.5 -26t-14.5 -75v-39h82v-78h-82v-110q0 -247 6 -312h-124q8 101 8 193v229h-71v78h71q0 63 14.5 109.5t55 78.5t103.5 32q13 0 25 -4z" />
    <glyph glyph-name="g" unicode="g" horiz-adv-x="463" 
d="M347 471l50 43l31 -27q-6 -17 -9.5 -45.5t-4.5 -82t-1.5 -93.5t-0.5 -126v-31q0 -8 1 -56.5t1 -60.5q0 -178 -210 -178q-57 0 -152 21l28 118q72 -55 135 -55q86 0 86 103q0 12 -2 28q-55 -29 -96 -29q-65 0 -118 57t-53 164q0 126 62.5 209.5t148.5 83.5q58 0 104 -43z
M150 251q0 -79 25.5 -123t71.5 -44q27 0 51 17q4 40 4 165q0 76 -7 113.5t-18.5 47t-34.5 9.5q-38 0 -65 -46.5t-27 -138.5z" />
    <glyph glyph-name="h" unicode="h" horiz-adv-x="463" 
d="M47 714h123q-2 -32 -2 -59v-184q67 43 108 43q54 0 94 -47t40 -118q0 -253 10 -349h-120q4 108 4 324q0 98 -79 98q-29 0 -54 -16q-2 -37 0.5 -194.5t6.5 -211.5h-121q6 54 6 272q-3 368 -16 442z" />
    <glyph glyph-name="i" unicode="i" horiz-adv-x="241" 
d="M58 500h123q-5 -59 -5 -249q0 -163 8 -251h-123q3 32 4.5 69.5t1.5 64t-0.5 71.5t-0.5 66q0 162 -8 229zM123 714q28 0 46.5 -21.5t18.5 -56.5q0 -33 -18.5 -56.5t-50.5 -23.5q-31 0 -48 23.5t-17 53.5q0 34 19.5 57.5t49.5 23.5z" />
    <glyph glyph-name="j" unicode="j" horiz-adv-x="222" 
d="M-6 -184v87q45 2 58.5 20.5t13.5 81.5q0 378 -15 495h119q-1 -24 -1 -93q0 -67 2.5 -200.5t2.5 -200.5q0 -89 -33.5 -140.5t-117.5 -51.5q-19 0 -29 2zM115 714q28 0 46.5 -21.5t18.5 -56.5q0 -33 -18.5 -56.5t-50.5 -23.5q-31 0 -48 23.5t-17 53.5q0 34 19.5 57.5
t49.5 23.5z" />
    <glyph glyph-name="k" unicode="k" horiz-adv-x="444" 
d="M50 714h120q-2 -39 -2 -127v-283h2l89 129q27 38 62.5 59.5t56.5 21.5q12 0 30 -2v-100h-20q-40 0 -66 -34l-28 -34l109 -242q35 -78 51 -102h-134q-7 18 -20 55.5t-20 54.5l-59 133l-53 -79v-73q0 -54 2 -91h-117q5 180 5 360q0 249 -8 354z" />
    <glyph glyph-name="l" unicode="l" horiz-adv-x="222" 
d="M50 714h120q-4 -52 -4 -335q0 -329 6 -379h-122q6 84 6 367q0 260 -6 347z" />
    <glyph glyph-name="m" unicode="m" horiz-adv-x="722" 
d="M45 500h107q11 -25 11 -56h2q55 70 124 70q77 0 114 -72q62 72 138 72q129 0 129 -172q0 -248 6 -342h-120q4 57 4 170v175q0 75 -55 75q-7 0 -14 -1t-13 -4l-11 -5.5t-11 -7t-9 -7.5l-8.5 -8.5t-7 -7.5t-6.5 -8l-5 -6v-183q0 -100 6 -182h-121q0 12 1.5 37.5t2.5 60
t1 81.5v147q0 53 -12.5 73.5t-40.5 20.5q-58 0 -87 -54v-180q0 -103 4 -186h-120q6 52 6 146q0 252 -15 354z" />
    <glyph glyph-name="n" unicode="n" horiz-adv-x="463" 
d="M47 500h105l11 -51q48 65 117 65q130 0 130 -179q0 -287 8 -335h-121q5 40 5 152q0 10 -1 71.5t-1 78.5q0 60 -13.5 85t-45.5 25q-37 0 -71 -49v-172q0 -115 6 -191h-119q3 150 3 241q0 203 -13 259z" />
    <glyph glyph-name="o" unicode="o" horiz-adv-x="463" 
d="M434 250q0 -104 -55 -184t-148 -80t-148 80t-55 184t55 184t148 80t148 -80t55 -184zM314 250q0 77 -22.5 130.5t-60.5 53.5t-60.5 -53.5t-22.5 -130.5t22.5 -130.5t60.5 -53.5t60.5 53.5t22.5 130.5z" />
    <glyph glyph-name="p" unicode="p" horiz-adv-x="463" 
d="M44 500h108l11 -38q20 16 30.5 23.5t36 18t51.5 10.5q71 0 116 -62t45 -159q0 -68 -24 -136.5t-78 -119.5t-124 -51l-48 8q0 -118 6 -180h-118q2 32 2 112v381q0 100 -14 193zM168 382v-305q15 -11 35 -11q61 0 93 59.5t32 141.5q0 73 -24.5 113t-68.5 40
q-16 0 -29.5 -6.5t-20 -12.5t-17.5 -19z" />
    <glyph glyph-name="q" unicode="q" horiz-adv-x="463" 
d="M386 520l39 -23q-15 -52 -15 -95v-341q0 -141 9 -247h-119q-1 20 1 53t2 48q0 43 -2 113q-53 -42 -105 -42q-78 0 -123 67t-45 168q0 121 59.5 207t140.5 86q52 0 109 -43q25 19 49 49zM302 106v165q0 102 -2 138q-21 25 -61 25q-35 0 -66 -42t-31 -140q0 -174 99 -174
q15 0 33.5 8.5t27.5 19.5z" />
    <glyph glyph-name="r" unicode="r" horiz-adv-x="333" 
d="M39 500h117q7 -16 12 -71q43 50 72.5 69.5t58.5 19.5q14 0 28 -4v-101q-18 3 -37 3q-63 0 -89.5 -54t-26.5 -172q0 -55 6 -190h-123q0 10 2 38t3.5 78t1.5 127q0 61 -0.5 90t-6.5 79t-18 88z" />
    <glyph glyph-name="s" unicode="s" horiz-adv-x="370" 
d="M31 17v136q84 -87 155 -87q32 0 50 16.5t18 42.5q0 24 -22 42.5t-54 33t-64 31t-54 45.5t-22 68q0 67 60 118t167 51q36 0 49 -4l7 -106q-51 24 -111 24q-31 0 -48.5 -15t-17.5 -34t22 -35t54 -30t64 -31.5t54 -50t22 -75.5q0 -69 -55.5 -120t-143.5 -51q-45 0 -130 31z
" />
    <glyph glyph-name="t" unicode="t" horiz-adv-x="296" 
d="M283 500v-78h-84q-3 -60 -3 -127v-140q0 -83 49 -83q20 0 40 4v-69q-43 -21 -80 -21q-57 0 -87 34.5t-30 90.5q0 254 -4 311h-63v78h65q0 129 -2 155h115q-3 -66 -3 -100q0 -1 1.5 -22t0.5 -33h85z" />
    <glyph glyph-name="u" unicode="u" horiz-adv-x="463" 
d="M421 0h-105l-11 51q-48 -65 -117 -65q-130 0 -130 179q0 287 -8 335h121q-5 -40 -5 -152q0 -10 1 -71.5t1 -78.5q0 -60 13.5 -85t45.5 -25q37 0 71 49v172q0 115 -6 191h119q-3 -150 -3 -241q0 -203 13 -259z" />
    <glyph glyph-name="v" unicode="v" horiz-adv-x="407" 
d="M10 500h124q30 -154 91 -353h2q0 2 11.5 46l23 92.5t23.5 110.5t15 104h106q-38 -184 -148 -500h-90q-90 214 -158 500z" />
    <glyph glyph-name="w" unicode="w" horiz-adv-x="611" 
d="M267 500h92q22 -131 76 -325h2q57 233 57 325h104q-17 -106 -36.5 -188t-35 -132.5l-57.5 -179.5h-85q-19 50 -45.5 146.5t-34.5 148.5h-2q-10 -61 -38 -161t-40 -134h-81q-65 213 -86 292.5t-47 207.5h120q10 -78 32 -183.5t33 -144.5h2q2 11 36.5 161t33.5 167z" />
    <glyph glyph-name="x" unicode="x" horiz-adv-x="407" 
d="M280 500h115l-44 -73.5l-52 -88t-39 -75.5q8 -22 68 -123t86 -140h-129q-11 30 -88 169q-54 -92 -91 -169h-114q19 30 82 138t69 122q-30 59 -146 240h129l79 -151q46 86 75 151z" />
    <glyph glyph-name="y" unicode="y" horiz-adv-x="407" 
d="M8 500h125q10 -56 41 -166.5t54 -167.5q22 55 44 157.5t30 176.5h104q-63 -293 -159 -520q-39 -91 -85.5 -128.5t-108.5 -37.5q-19 0 -43 7v99q27 -16 57 -16q35 0 54.5 22t53.5 88l-56.5 148t-67.5 184.5t-43 153.5z" />
    <glyph glyph-name="z" unicode="z" horiz-adv-x="370" 
d="M16 0v73q146 236 205 349q-126 0 -189 -8v86h326v-58l-211 -362q17 0 107 1.5t106 2.5v-84h-344z" />
    <glyph glyph-name="braceleft" unicode="{" horiz-adv-x="315" 
d="M48 254v60q32 0 57 30.5t25 76.5v172q0 56 33.5 88.5t74.5 32.5h72v-58h-50q-48 0 -48 -78v-172q0 -56 -29.5 -86t-56.5 -35v-3q16 -4 33 -13.5t35 -39t18 -72.5v-171q0 -78 48 -78h50v-58h-72q-41 0 -74.5 32.5t-33.5 88.5v171q0 48 -25 79.5t-57 32.5z" />
    <glyph glyph-name="bar" unicode="|" horiz-adv-x="222" 
d="M70 -250v1000h82v-1000h-82z" />
    <glyph glyph-name="braceright" unicode="}" horiz-adv-x="315" 
d="M267 314v-60q-32 -1 -57 -32.5t-25 -79.5v-171q0 -56 -33.5 -88.5t-74.5 -32.5h-72v58h50q48 0 48 78v171q0 43 18 72.5t35 39t33 13.5v3q-27 5 -56.5 35t-29.5 86v172q0 78 -48 78h-50v58h72q41 0 74.5 -32.5t33.5 -88.5v-172q0 -46 25 -76.5t57 -30.5z" />
    <glyph glyph-name="asciitilde" unicode="~" horiz-adv-x="600" 
d="M495 326l36 -62q-20 -27 -33 -42t-38 -29.5t-54 -14.5q-42 0 -102 33q-62 35 -115 35q-51 0 -84 -72l-36 62q45 86 125 86q39 0 111 -32l21.5 -9.5t23 -10l20 -8t20.5 -6.5t17 -2q19 0 36.5 12t27 24.5t24.5 35.5z" />
    <glyph glyph-name="exclamdown" unicode="&#xa1;" horiz-adv-x="296" 
d="M126 298h54q3 -108 13 -209.5t18.5 -159.5t8.5 -66q0 -35 -19.5 -57t-49.5 -22t-49.5 22t-19.5 57q0 8 9.5 66t20.5 159.5t14 209.5zM220 443q0 -29 -20 -49t-49 -20t-49 20t-20 49t20 49t49 20t49 -20t20 -49z" />
    <glyph glyph-name="cent" unicode="&#xa2;" 
d="M282 87v329q-35 -12 -59.5 -51.5t-24.5 -110.5q0 -128 84 -167zM334 420v-346q46 2 81 37l37 -50q-44 -52 -118 -69v-72h-52v68q-91 1 -146.5 72.5t-55.5 166.5q0 90 56 169t146 108v58h52v-49q9 1 27 1q22 0 40 -4v-125q-26 30 -67 35z" />
    <glyph glyph-name="sterling" unicode="&#xa3;" 
d="M36 312v64h81q-11 26 -21.5 68t-10.5 63q0 84 76.5 133.5t164.5 49.5q52 0 111 -12v-112q-92 42 -151 42q-36 0 -58.5 -18t-22.5 -53q0 -20 6.5 -48.5t17 -64t13.5 -48.5h170v-64h-155q5 -25 5 -35q0 -28 -13.5 -60.5t-28 -55t-45.5 -65.5q188 0 326 9v-105h-439v51
q94 97 94 182q0 39 -18 79h-102z" />
    <glyph glyph-name="currency" unicode="&#xa4;" 
d="M129 339q0 -54 38 -92t92 -38t92 38t38 92t-38 92t-92 38t-92 -38t-38 -92zM72 97l-56 56l65 67q-36 53 -36 119q0 67 38 122l-67 66l56 56l67 -66q55 36 120 36q67 0 120 -36l67 66l56 -56l-67 -67q38 -55 38 -121q0 -68 -37 -120l66 -66l-56 -56l-66 66
q-55 -38 -121 -38q-67 0 -122 39z" />
    <glyph glyph-name="yen" unicode="&#xa5;" 
d="M12 678h140q15 -50 65.5 -166.5t51.5 -118.5l38 88.5l45.5 106.5t35.5 90h119q-43 -77 -133 -262h108v-64h-140q-16 -31 -26 -56v-20h166v-64h-166q0 -126 5 -212h-120q1 70 1 212h-166v64h166v7q-5 9 -32 69h-134v64h104q-93 197 -128 262z" />
    <glyph glyph-name="brokenbar" unicode="&#xa6;" horiz-adv-x="222" 
d="M70 -175v350h82v-350h-82zM70 325v350h82v-350h-82z" />
    <glyph glyph-name="section" unicode="&#xa7;" 
d="M93 -158v128q77 -64 154 -64q41 0 63 21t22 47q0 29 -29.5 58.5t-71.5 56l-84 55t-71.5 67.5t-29.5 82q0 28 10 52t31.5 45t31.5 29.5t31 23.5q-54 41 -54 103q0 71 62.5 125.5t166.5 54.5q79 0 108 -12v-109q-88 45 -147 45q-40 0 -60 -17.5t-20 -44.5q0 -23 26 -47.5
t63 -47t74 -48t63 -61.5t26 -76q0 -87 -97 -162q85 -65 85 -142q0 -76 -65 -129t-154 -53q-88 0 -134 20zM152 332q0 -29 36.5 -63.5t125.5 -88.5q15 10 32.5 32.5t17.5 45.5q0 18 -12.5 37t-35.5 37t-42 30.5t-44 27l-30 17.5q-19 -11 -33.5 -32t-14.5 -43z" />
    <glyph glyph-name="dieresis" unicode="&#xa8;" horiz-adv-x="241" 
d="M-31 640q0 26 18.5 44.5t44.5 18.5t44.5 -18.5t18.5 -44.5t-18.5 -44.5t-44.5 -18.5t-44.5 18.5t-18.5 44.5zM145 640q0 26 18.5 44.5t44.5 18.5t44.5 -18.5t18.5 -44.5t-18.5 -44.5t-44.5 -18.5t-44.5 18.5t-18.5 44.5z" />
    <glyph glyph-name="copyright" unicode="&#xa9;" horiz-adv-x="800" 
d="M401 -14q-156 0 -266.5 105.5t-110.5 266.5q0 160 111 265t266 105q154 0 264.5 -105t110.5 -265q0 -161 -110.5 -266.5t-264.5 -105.5zM401 52q124 0 207.5 87.5t83.5 218.5q0 129 -84 216.5t-207 87.5q-125 0 -209 -87t-84 -217q0 -132 84 -219t209 -87zM524 291h72
q-14 -72 -64.5 -114.5t-118.5 -42.5q-96 0 -155.5 64.5t-59.5 161.5q0 99 57.5 161.5t155.5 62.5q73 0 123 -40t61 -113h-71q-7 39 -38 62t-75 23q-63 0 -98 -43t-35 -112q0 -66 37.5 -112.5t97.5 -46.5q45 0 75.5 24.5t35.5 64.5z" />
    <glyph glyph-name="ordfeminine" unicode="&#xaa;" horiz-adv-x="288" 
d="M267 382h-68q-7 7 -14 23q-43 -31 -78 -31q-42 0 -66.5 26.5t-24.5 61.5q0 25 12.5 45t27.5 32.5t41.5 24t42 16t40.5 10.5q-6 52 -61 52q-21 0 -72 -22v70q28 4 45 4q71 0 116.5 -26.5t45.5 -87.5v-106q0 -43 13 -92zM182 447v93q-43 -5 -66.5 -23.5t-23.5 -45.5
q0 -20 13 -31.5t32 -11.5q29 0 45 19z" />
    <glyph glyph-name="guillemotleft" unicode="&#xab;" horiz-adv-x="426" 
d="M224 219v82l162 119v-77l-117 -82l117 -81v-80zM38 219v82l162 119v-77l-117 -82l117 -81v-80z" />
    <glyph glyph-name="logicalnot" unicode="&#xac;" horiz-adv-x="600" 
d="M468 106v207h-418v82h500v-289h-82z" />
    <glyph glyph-name="registered" unicode="&#xae;" horiz-adv-x="800" 
d="M334 328v-182h-70v424h161q78 0 116.5 -29t38.5 -93q0 -104 -112 -116l119 -186h-76l-109 182h-68zM334 386h78q31 0 49.5 3.5t33.5 19t15 44.5q0 59 -92 59h-84v-126zM401 -14q-156 0 -266.5 105.5t-110.5 266.5q0 160 111 265t266 105q154 0 264.5 -105t110.5 -265
q0 -161 -110.5 -266.5t-264.5 -105.5zM401 52q124 0 207.5 87.5t83.5 218.5q0 129 -84 216.5t-207 87.5q-125 0 -209 -87t-84 -217q0 -132 84 -219t209 -87z" />
    <glyph glyph-name="macron" unicode="&#xaf;" horiz-adv-x="241" 
d="M-24 606v66h289v-66h-289z" />
    <glyph glyph-name="macron" unicode="&#x2c9;" horiz-adv-x="241" 
d="M-24 606v66h289v-66h-289z" />
    <glyph glyph-name="degree" unicode="&#xb0;" horiz-adv-x="400" 
d="M201 690q63 0 107.5 -44.5t44.5 -108.5q0 -63 -44.5 -107.5t-107.5 -44.5t-108 44.5t-45 107.5q0 65 45 109t108 44zM201 624q-36 0 -61.5 -25t-25.5 -61q0 -35 25.5 -61t61.5 -26q37 0 61.5 26t24.5 61q0 36 -25.5 61t-60.5 25z" />
    <glyph glyph-name="plusminus" unicode="&#xb1;" horiz-adv-x="600" 
d="M259 349v151h82v-151h209v-82h-209v-151h-82v151h-209v82h209zM50 0v82h500v-82h-500z" />
    <glyph glyph-name="twosuperior" unicode="&#xb2;" horiz-adv-x="336" 
d="M26 276v62q10 12 69.5 72t93 105t33.5 75q0 21 -17.5 36.5t-44.5 15.5q-57 0 -108 -68l-11 81q54 35 125 35q67 0 105.5 -31.5t38.5 -74.5q0 -31 -25.5 -69t-54.5 -64.5l-72 -63t-56 -49.5h143q19 0 55 4v-66h-274z" />
    <glyph glyph-name="threesuperior" unicode="&#xb3;" horiz-adv-x="336" 
d="M30 291v83q56 -56 112 -56q34 0 56 19t22 55q0 34 -19.5 54t-71.5 20h-31v53q2 0 12 -0.5t17 -0.5q40 2 62.5 16t22.5 49q0 28 -18 43.5t-46 15.5q-53 0 -105 -46v71q42 23 105 23q59 0 101.5 -26t42.5 -78q0 -29 -18 -55t-58 -35v-2q17 -5 34 -13t35.5 -32.5t18.5 -58.5
q0 -55 -45 -87.5t-121 -32.5q-57 0 -108 21z" />
    <glyph glyph-name="acute" unicode="&#xb4;" horiz-adv-x="241" 
d="M135 718h136l-144 -144h-82z" />
    <glyph glyph-name="mu" unicode="&#xb5;" horiz-adv-x="463" 
d="M421 0h-105l-11 51q-48 -65 -117 -65q-15 0 -22 2v-100q0 -49 4 -74h-116q4 92 4 132v231q0 277 -8 323h121q-5 -40 -5 -152q0 -10 1 -71.5t1 -78.5q0 -60 13.5 -85t45.5 -25q37 0 71 49v172q0 115 -6 191h119q-3 -150 -3 -241q0 -203 13 -259z" />
    <glyph glyph-name="mu" unicode="&#x3bc;" horiz-adv-x="463" 
d="M421 0h-105l-11 51q-48 -65 -117 -65q-15 0 -22 2v-100q0 -49 4 -74h-116q4 92 4 132v231q0 277 -8 323h121q-5 -40 -5 -152q0 -10 1 -71.5t1 -78.5q0 -60 13.5 -85t45.5 -25q37 0 71 49v172q0 115 -6 191h119q-3 -150 -3 -241q0 -203 13 -259z" />
    <glyph glyph-name="paragraph" unicode="&#xb6;" 
d="M520 642h-51v-821h-90v821h-78v-821h-90v430q-89 1 -148 60.5t-59 161.5q0 100 65.5 170.5t196.5 70.5h254v-72z" />
    <glyph glyph-name="periodcentered" unicode="&#xb7;" horiz-adv-x="259" 
d="M130 335q35 0 59.5 -25t24.5 -60q0 -34 -24.5 -59t-59.5 -25q-36 0 -60.5 24.5t-24.5 59.5q0 36 25 60.5t60 24.5z" />
    <glyph glyph-name="periodcentered" unicode="&#x2219;" horiz-adv-x="259" 
d="M130 335q35 0 59.5 -25t24.5 -60q0 -34 -24.5 -59t-59.5 -25q-36 0 -60.5 24.5t-24.5 59.5q0 36 25 60.5t60 24.5z" />
    <glyph glyph-name="cedilla" unicode="&#xb8;" horiz-adv-x="241" 
d="M5 -202l18 40q37 -16 69 -16q56 0 56 41q0 19 -15 27t-33 8q-21 0 -36 -7l-22 19l66 90h48l-44 -60l2 -2q12 4 26 4q36 0 63 -21t27 -56q0 -45 -37 -69t-85 -24q-51 0 -103 26z" />
    <glyph glyph-name="onesuperior" unicode="&#xb9;" horiz-adv-x="336" 
d="M52 620v38l160 36v-372h72v-46h-226v46h76v298h-82z" />
    <glyph glyph-name="ordmasculine" unicode="&#xba;" horiz-adv-x="300" 
d="M282 532q0 -62 -36 -110t-96 -48t-96 48t-36 110t36 110t96 48t96 -48t36 -110zM204 532q0 47 -14.5 78.5t-39.5 31.5t-39.5 -32t-14.5 -78t14.5 -78t39.5 -32t39.5 31.5t14.5 78.5z" />
    <glyph glyph-name="guillemotright" unicode="&#xbb;" horiz-adv-x="426" 
d="M202 301v-82l-162 -119v77l117 82l-117 81v80zM388 301v-82l-162 -119v77l117 82l-117 81v80z" />
    <glyph glyph-name="onequarter" unicode="&#xbc;" horiz-adv-x="778" 
d="M618 92h-174v57q106 169 154 269h82q-79 -139 -178 -272h114v125l77 111q0 -28 -0.5 -82.5t-0.5 -81.5q0 -10 0.5 -33t0.5 -39h59v-54h-59q0 -82 1 -92h-78q2 24 2 92zM52 620v38l160 36v-372h72v-46h-226v46h76v298h-82zM172 -12l437 702h64l-437 -702h-64z" />
    <glyph glyph-name="onehalf" unicode="&#xbd;" horiz-adv-x="778" 
d="M52 620v38l160 36v-372h72v-46h-226v46h76v298h-82zM468 0v62q10 12 69.5 72t93 105t33.5 75q0 21 -17.5 36.5t-44.5 15.5q-57 0 -108 -68l-11 81q54 35 125 35q67 0 105.5 -31.5t38.5 -74.5q0 -31 -25.5 -69t-54.5 -64.5l-72 -63t-56 -49.5h143q19 0 55 4v-66h-274z
M142 -12l437 702h64l-437 -702h-64z" />
    <glyph glyph-name="threequarters" unicode="&#xbe;" horiz-adv-x="778" 
d="M618 92h-174v57q106 169 154 269h82q-79 -139 -178 -272h114v125l77 111q0 -28 -0.5 -82.5t-0.5 -81.5q0 -10 0.5 -33t0.5 -39h59v-54h-59q0 -82 1 -92h-78q2 24 2 92zM162 -12l437 702h64l-437 -702h-64zM30 291v83q56 -56 112 -56q34 0 56 19t22 55q0 34 -19.5 54
t-71.5 20h-31v53q2 0 12 -0.5t17 -0.5q40 2 62.5 16t22.5 49q0 28 -18 43.5t-46 15.5q-53 0 -105 -46v71q42 23 105 23q59 0 101.5 -26t42.5 -78q0 -29 -18 -55t-58 -35v-2q17 -5 34 -13t35.5 -32.5t18.5 -58.5q0 -55 -45 -87.5t-121 -32.5q-57 0 -108 21z" />
    <glyph glyph-name="questiondown" unicode="&#xbf;" horiz-adv-x="333" 
d="M266 -103v-109q-24 -8 -61 -8q-91 0 -144 59.5t-53 140.5q0 116 104 182l46 29l4 103h58v-199q-120 -66 -120 -145q0 -37 22 -63.5t61 -26.5q46 0 83 37zM258 443q0 -29 -20 -49t-49 -20t-49 20t-20 49t20 49t49 20t49 -20t20 -49z" />
    <glyph glyph-name="Agrave" unicode="&#xc0;" horiz-adv-x="555" 
d="M190 714h136l224 -714h-139q-22 95 -48 168q-82 2 -101 2t-97 -2q-21 -69 -39 -168h-120l64.5 201l76 237l64.5 212zM267 260q4 0 72 2q-39 147 -72 242h-2q-10 -29 -26.5 -84.5l-30.5 -104t-16 -53.5q72 -2 75 -2zM262 932l91 -144h-83l-143 144h135z" />
    <glyph glyph-name="Aacute" unicode="&#xc1;" horiz-adv-x="555" 
d="M190 714h136l224 -714h-139q-22 95 -48 168q-82 2 -101 2t-97 -2q-21 -69 -39 -168h-120l64.5 201l76 237l64.5 212zM267 260q4 0 72 2q-39 147 -72 242h-2q-10 -29 -26.5 -84.5l-30.5 -104t-16 -53.5q72 -2 75 -2zM292 932h136l-144 -144h-82z" />
    <glyph glyph-name="Acircumflex" unicode="&#xc2;" horiz-adv-x="555" 
d="M190 714h136l224 -714h-139q-22 95 -48 168q-82 2 -101 2t-97 -2q-21 -69 -39 -168h-120l64.5 201l76 237l64.5 212zM267 260q4 0 72 2q-39 147 -72 242h-2q-10 -29 -26.5 -84.5l-30.5 -104t-16 -53.5q72 -2 75 -2zM207 788h-93l108 144h111l107 -144h-92l-71 89z" />
    <glyph glyph-name="Atilde" unicode="&#xc3;" horiz-adv-x="555" 
d="M190 714h136l224 -714h-139q-22 95 -48 168q-82 2 -101 2t-97 -2q-21 -69 -39 -168h-120l64.5 201l76 237l64.5 212zM267 260q4 0 72 2q-39 147 -72 242h-2q-10 -29 -26.5 -84.5l-30.5 -104t-16 -53.5q72 -2 75 -2zM396 917h57q-8 -49 -34.5 -82t-72.5 -33q-30 0 -77 19
q-48 18 -70 18q-35 0 -43 -44h-57q7 51 35.5 84t75.5 33q21 0 74 -19q50 -20 64 -20q17 0 28 8.5t14 16t6 19.5z" />
    <glyph glyph-name="Adieresis" unicode="&#xc4;" horiz-adv-x="555" 
d="M190 714h136l224 -714h-139q-22 95 -48 168q-82 2 -101 2t-97 -2q-21 -69 -39 -168h-120l64.5 201l76 237l64.5 212zM267 260q4 0 72 2q-39 147 -72 242h-2q-10 -29 -26.5 -84.5l-30.5 -104t-16 -53.5q72 -2 75 -2zM126 854q0 26 18.5 44.5t44.5 18.5t44.5 -18.5
t18.5 -44.5t-18.5 -44.5t-44.5 -18.5t-44.5 18.5t-18.5 44.5zM302 854q0 26 18.5 44.5t44.5 18.5t44.5 -18.5t18.5 -44.5t-18.5 -44.5t-44.5 -18.5t-44.5 18.5t-18.5 44.5z" />
    <glyph glyph-name="Aring" unicode="&#xc5;" horiz-adv-x="555" 
d="M190 714h136l224 -714h-139q-22 95 -48 168q-82 2 -101 2t-97 -2q-21 -69 -39 -168h-120l64.5 201l76 237l64.5 212zM267 260q4 0 72 2q-39 147 -72 242h-2q-10 -29 -26.5 -84.5l-30.5 -104t-16 -53.5q72 -2 75 -2zM225 878q0 -22 15 -37t37 -15t37 15t15 37t-15 37
t-37 15t-37 -15t-15 -37zM171 878q0 44 31 75t75 31t75 -31t31 -75t-31 -75t-75 -31t-75 31t-31 75z" />
    <glyph glyph-name="AE" unicode="&#xc6;" horiz-adv-x="796" 
d="M228 260h146q-1 212 7 353l-2 2q-33 -116 -63 -175zM374 170h-187l-68 -170h-139q48 77 175.5 326.5t151.5 315.5l-12 72h471v-107q-95 15 -210 15q-4 0 -62 -2q-2 -31 -2 -115q0 -38 2 -92l184 6v-108l-186 6q-3 -62 -3 -132q0 -47 3 -93q208 4 287 11v-103h-410
q5 95 5 170z" />
    <glyph glyph-name="Ccedilla" unicode="&#xc7;" horiz-adv-x="500" 
d="M475 703v-137q-68 68 -137 68q-47 0 -82 -26t-54.5 -69t-28.5 -90t-9 -97q0 -127 50 -198.5t129 -71.5q68 0 120 57l45 -45q-26 -36 -79 -72t-117 -36q-18 0 -34 4l-36 -50l2 -2q12 4 26 4q36 0 63 -21t27 -56q0 -45 -37 -69t-85 -24q-51 0 -103 26l18 40q37 -16 69 -16
q56 0 56 41q0 19 -15 27t-33 8q-21 0 -36 -7l-22 19l66 89q-89 27 -149.5 111.5t-60.5 209.5q0 58 13.5 115t42 109t67.5 91.5t94 63t118 23.5q71 0 112 -19z" />
    <glyph glyph-name="Egrave" unicode="&#xc8;" horiz-adv-x="500" 
d="M68 714h404v-107q-95 15 -210 15q-4 0 -62 -2q-2 -31 -2 -115q0 -38 2 -92l184 6v-108l-186 6q-3 -62 -3 -132q0 -47 3 -93q208 4 287 11v-103h-414q0 22 1.5 138t1.5 135q0 344 -6 441zM235 932l91 -144h-83l-143 144h135z" />
    <glyph glyph-name="Eacute" unicode="&#xc9;" horiz-adv-x="500" 
d="M68 714h404v-107q-95 15 -210 15q-4 0 -62 -2q-2 -31 -2 -115q0 -38 2 -92l184 6v-108l-186 6q-3 -62 -3 -132q0 -47 3 -93q208 4 287 11v-103h-414q0 22 1.5 138t1.5 135q0 344 -6 441zM265 932h136l-144 -144h-82z" />
    <glyph glyph-name="Ecircumflex" unicode="&#xca;" horiz-adv-x="500" 
d="M68 714h404v-107q-95 15 -210 15q-4 0 -62 -2q-2 -31 -2 -115q0 -38 2 -92l184 6v-108l-186 6q-3 -62 -3 -132q0 -47 3 -93q208 4 287 11v-103h-414q0 22 1.5 138t1.5 135q0 344 -6 441zM180 788h-93l108 144h111l107 -144h-92l-71 89z" />
    <glyph glyph-name="Edieresis" unicode="&#xcb;" horiz-adv-x="500" 
d="M68 714h404v-107q-95 15 -210 15q-4 0 -62 -2q-2 -31 -2 -115q0 -38 2 -92l184 6v-108l-186 6q-3 -62 -3 -132q0 -47 3 -93q208 4 287 11v-103h-414q0 22 1.5 138t1.5 135q0 344 -6 441zM99 854q0 26 18.5 44.5t44.5 18.5t44.5 -18.5t18.5 -44.5t-18.5 -44.5t-44.5 -18.5
t-44.5 18.5t-18.5 44.5zM275 854q0 26 18.5 44.5t44.5 18.5t44.5 -18.5t18.5 -44.5t-18.5 -44.5t-44.5 -18.5t-44.5 18.5t-18.5 44.5z" />
    <glyph glyph-name="Igrave" unicode="&#xcc;" horiz-adv-x="259" 
d="M61 714h138q-7 -122 -7 -340q0 -280 8 -374h-140q8 94 8 374q0 218 -7 340zM114 932l91 -144h-83l-143 144h135z" />
    <glyph glyph-name="Iacute" unicode="&#xcd;" horiz-adv-x="259" 
d="M61 714h138q-7 -122 -7 -340q0 -280 8 -374h-140q8 94 8 374q0 218 -7 340zM144 932h136l-144 -144h-82z" />
    <glyph glyph-name="Icircumflex" unicode="&#xce;" horiz-adv-x="259" 
d="M61 714h138q-7 -122 -7 -340q0 -280 8 -374h-140q8 94 8 374q0 218 -7 340zM59 788h-93l108 144h111l107 -144h-92l-71 89z" />
    <glyph glyph-name="Idieresis" unicode="&#xcf;" horiz-adv-x="259" 
d="M61 714h138q-7 -122 -7 -340q0 -280 8 -374h-140q8 94 8 374q0 218 -7 340zM-22 854q0 26 18.5 44.5t44.5 18.5t44.5 -18.5t18.5 -44.5t-18.5 -44.5t-44.5 -18.5t-44.5 18.5t-18.5 44.5zM154 854q0 26 18.5 44.5t44.5 18.5t44.5 -18.5t18.5 -44.5t-18.5 -44.5
t-44.5 -18.5t-44.5 18.5t-18.5 44.5z" />
    <glyph glyph-name="Eth" unicode="&#xd0;" horiz-adv-x="574" 
d="M12 320v98q34 0 50 -1q0 149 -3 297h190q151 -3 222 -100t71 -256q0 -79 -16 -142.5t-50.5 -112.5t-93.5 -76t-140 -27h-184q4 214 4 322q-7 0 -25.5 -1t-24.5 -1zM319 418l-1 -98q-29 1 -65 2.5t-59 1.5h-7q0 -39 1 -116.5t1 -116.5q24 -3 37 -3q64 0 102.5 22t60 83
t21.5 168q0 150 -45 207.5t-142 57.5q-8 0 -18.5 -1t-14.5 -1q-4 -140 -3 -210q7 0 20 0.5t43 1.5t69 2z" />
    <glyph glyph-name="Ntilde" unicode="&#xd1;" horiz-adv-x="574" 
d="M62 714h136q28 -51 55 -107l57 -123t49 -106q36 -75 47 -114l2 2q-4 86 -8.5 249l-5.5 199h115q-5 -165 -5 -426q0 -172 4 -288h-90q-11 27 -51 109l-164 341q-20 43 -27 78h-2q0 -327 8 -528h-117q3 110 3 378q0 230 -6 336zM406 917h57q-8 -49 -34.5 -82t-72.5 -33
q-30 0 -77 19q-48 18 -70 18q-35 0 -43 -44h-57q7 51 35.5 84t75.5 33q21 0 74 -19q50 -20 64 -20q17 0 28 8.5t14 16t6 19.5z" />
    <glyph glyph-name="Ograve" unicode="&#xd2;" horiz-adv-x="592" 
d="M296 728q113 0 186.5 -103.5t73.5 -267.5t-73.5 -267.5t-186.5 -103.5t-186.5 103.5t-73.5 267.5t73.5 267.5t186.5 103.5zM296 640q-60 0 -94 -73.5t-34 -209.5t34 -209.5t94 -73.5t94 73.5t34 209.5t-34 209.5t-94 73.5zM281 932l91 -144h-83l-143 144h135z" />
    <glyph glyph-name="Oacute" unicode="&#xd3;" horiz-adv-x="592" 
d="M296 728q113 0 186.5 -103.5t73.5 -267.5t-73.5 -267.5t-186.5 -103.5t-186.5 103.5t-73.5 267.5t73.5 267.5t186.5 103.5zM296 640q-60 0 -94 -73.5t-34 -209.5t34 -209.5t94 -73.5t94 73.5t34 209.5t-34 209.5t-94 73.5zM311 932h136l-144 -144h-82z" />
    <glyph glyph-name="Ocircumflex" unicode="&#xd4;" horiz-adv-x="592" 
d="M296 728q113 0 186.5 -103.5t73.5 -267.5t-73.5 -267.5t-186.5 -103.5t-186.5 103.5t-73.5 267.5t73.5 267.5t186.5 103.5zM296 640q-60 0 -94 -73.5t-34 -209.5t34 -209.5t94 -73.5t94 73.5t34 209.5t-34 209.5t-94 73.5zM226 788h-93l108 144h111l107 -144h-92l-71 89z
" />
    <glyph glyph-name="Otilde" unicode="&#xd5;" horiz-adv-x="592" 
d="M296 728q113 0 186.5 -103.5t73.5 -267.5t-73.5 -267.5t-186.5 -103.5t-186.5 103.5t-73.5 267.5t73.5 267.5t186.5 103.5zM296 640q-60 0 -94 -73.5t-34 -209.5t34 -209.5t94 -73.5t94 73.5t34 209.5t-34 209.5t-94 73.5zM415 917h57q-8 -49 -34.5 -82t-72.5 -33
q-29 0 -77 19q-48 18 -70 18q-35 0 -43 -44h-57q7 51 35.5 84t75.5 33q21 0 74 -19q50 -20 64 -20q17 0 28 8.5t14 16t6 19.5z" />
    <glyph glyph-name="Odieresis" unicode="&#xd6;" horiz-adv-x="592" 
d="M296 728q113 0 186.5 -103.5t73.5 -267.5t-73.5 -267.5t-186.5 -103.5t-186.5 103.5t-73.5 267.5t73.5 267.5t186.5 103.5zM296 640q-60 0 -94 -73.5t-34 -209.5t34 -209.5t94 -73.5t94 73.5t34 209.5t-34 209.5t-94 73.5zM145 854q0 26 18.5 44.5t44.5 18.5t44.5 -18.5
t18.5 -44.5t-18.5 -44.5t-44.5 -18.5t-44.5 18.5t-18.5 44.5zM321 854q0 26 18.5 44.5t44.5 18.5t44.5 -18.5t18.5 -44.5t-18.5 -44.5t-44.5 -18.5t-44.5 18.5t-18.5 44.5z" />
    <glyph glyph-name="multiply" unicode="&#xd7;" horiz-adv-x="600" 
d="M242 250l-192 192l58 58l192 -192l192 192l58 -58l-192 -192l192 -192l-58 -58l-192 192l-192 -192l-58 58z" />
    <glyph glyph-name="Oslash" unicode="&#xd8;" horiz-adv-x="592" 
d="M178 230l210 339q-33 71 -92 71q-60 0 -94 -73.5t-34 -209.5q0 -77 10 -127zM410 504l-213 -345q33 -85 99 -85q60 0 94 73.5t34 209.5q0 85 -14 147zM135 58l-63 -102l-47 28l75 121q-64 101 -64 252q0 164 73.5 267.5t186.5 103.5q87 0 152 -63l56 90l44 -27l-65 -105
q73 -103 73 -266q0 -164 -73.5 -267.5t-186.5 -103.5q-94 0 -161 72z" />
    <glyph glyph-name="Ugrave" unicode="&#xd9;" horiz-adv-x="555" 
d="M53 714h132l-3 -143v-375q0 -123 101 -123q55 0 82 37.5t27 145.5v352q0 60 -4 106h110q-2 -50 -4 -283.5t-2 -234.5q-5 -109 -59 -159.5t-164 -50.5q-111 0 -162 56t-51 208q0 38 1 113.5t1 113.5q0 147 -5 237zM262 932l91 -144h-83l-143 144h135z" />
    <glyph glyph-name="Uacute" unicode="&#xda;" horiz-adv-x="555" 
d="M53 714h132l-3 -143v-375q0 -123 101 -123q55 0 82 37.5t27 145.5v352q0 60 -4 106h110q-2 -50 -4 -283.5t-2 -234.5q-5 -109 -59 -159.5t-164 -50.5q-111 0 -162 56t-51 208q0 38 1 113.5t1 113.5q0 147 -5 237zM292 932h136l-144 -144h-82z" />
    <glyph glyph-name="Ucircumflex" unicode="&#xdb;" horiz-adv-x="555" 
d="M53 714h132l-3 -143v-375q0 -123 101 -123q55 0 82 37.5t27 145.5v352q0 60 -4 106h110q-2 -50 -4 -283.5t-2 -234.5q-5 -109 -59 -159.5t-164 -50.5q-111 0 -162 56t-51 208q0 38 1 113.5t1 113.5q0 147 -5 237zM207 788h-93l108 144h111l107 -144h-92l-71 89z" />
    <glyph glyph-name="Udieresis" unicode="&#xdc;" horiz-adv-x="555" 
d="M53 714h132l-3 -143v-375q0 -123 101 -123q55 0 82 37.5t27 145.5v352q0 60 -4 106h110q-2 -50 -4 -283.5t-2 -234.5q-5 -109 -59 -159.5t-164 -50.5q-111 0 -162 56t-51 208q0 38 1 113.5t1 113.5q0 147 -5 237zM126 854q0 26 18.5 44.5t44.5 18.5t44.5 -18.5
t18.5 -44.5t-18.5 -44.5t-44.5 -18.5t-44.5 18.5t-18.5 44.5zM302 854q0 26 18.5 44.5t44.5 18.5t44.5 -18.5t18.5 -44.5t-18.5 -44.5t-44.5 -18.5t-44.5 18.5t-18.5 44.5z" />
    <glyph glyph-name="Yacute" unicode="&#xdd;" 
d="M0 714h147q12 -39 34.5 -93l50.5 -117t39 -90l40.5 93.5l47.5 111.5t37 95h125l-111 -215.5t-90 -186.5q0 -217 5 -312h-126q1 99 1 298l-61 131l-73 156t-66 129zM274 932h136l-144 -144h-82z" />
    <glyph glyph-name="Thorn" unicode="&#xde;" horiz-adv-x="500" 
d="M200 0h-140q8 94 8 374q0 218 -7 340h138q-2 -32 -4 -135h84q107 -3 169 -53t62 -154q0 -215 -274 -215q-3 0 -8.5 0.5t-14.5 1t-19 0.5q2 -107 6 -159zM380 372q0 121 -149 121q-12 0 -37 -3q-2 -52 -2 -116q0 -71 1 -125q28 -2 37 -2q150 0 150 125z" />
    <glyph glyph-name="germandbls" unicode="&#xdf;" horiz-adv-x="463" 
d="M199 -2v96q8 -9 24 -16.5t30 -7.5q26 0 48.5 35t22.5 99q0 105 -27 146t-103 45v78q59 -7 87.5 25t28.5 76q0 39 -20.5 59.5t-49.5 20.5q-45 0 -63.5 -38.5t-19.5 -129.5l-1 -228q0 -21 2 -130.5t2 -127.5h-118q6 155 6 404v70q0 135 52.5 194.5t152.5 59.5
q66 0 117.5 -36t51.5 -104q0 -56 -25 -90t-77 -54v-2q61 -17 90.5 -66.5t29.5 -140.5q0 -45 -9.5 -86.5t-29 -79.5t-56 -60.5t-84.5 -22.5q-26 0 -62 12z" />
    <glyph glyph-name="agrave" unicode="&#xe0;" horiz-adv-x="444" 
d="M411 0h-105q-14 15 -21 39q-22 -18 -35 -26.5t-37 -17.5t-49 -9q-65 0 -102.5 44.5t-37.5 102.5q0 41 19 75t42.5 54.5t65 39.5t64 26l62.5 19q-11 85 -94 85q-41 0 -110 -36v118q42 4 68 4q51 0 93.5 -9t78.5 -29.5t56.5 -58.5t20.5 -91v-177q0 -72 21 -153zM280 109
v154q-66 -8 -103 -39t-37 -76q0 -34 21 -53t50 -19q44 0 69 33zM207 718l91 -144h-83l-143 144h135z" />
    <glyph glyph-name="aacute" unicode="&#xe1;" horiz-adv-x="444" 
d="M411 0h-105q-14 15 -21 39q-22 -18 -35 -26.5t-37 -17.5t-49 -9q-65 0 -102.5 44.5t-37.5 102.5q0 41 19 75t42.5 54.5t65 39.5t64 26l62.5 19q-11 85 -94 85q-41 0 -110 -36v118q42 4 68 4q51 0 93.5 -9t78.5 -29.5t56.5 -58.5t20.5 -91v-177q0 -72 21 -153zM280 109
v154q-66 -8 -103 -39t-37 -76q0 -34 21 -53t50 -19q44 0 69 33zM237 718h136l-144 -144h-82z" />
    <glyph glyph-name="acircumflex" unicode="&#xe2;" horiz-adv-x="444" 
d="M411 0h-105q-14 15 -21 39q-22 -18 -35 -26.5t-37 -17.5t-49 -9q-65 0 -102.5 44.5t-37.5 102.5q0 41 19 75t42.5 54.5t65 39.5t64 26l62.5 19q-11 85 -94 85q-41 0 -110 -36v118q42 4 68 4q51 0 93.5 -9t78.5 -29.5t56.5 -58.5t20.5 -91v-177q0 -72 21 -153zM280 109
v154q-66 -8 -103 -39t-37 -76q0 -34 21 -53t50 -19q44 0 69 33zM152 574h-93l108 144h111l107 -144h-92l-71 89z" />
    <glyph glyph-name="atilde" unicode="&#xe3;" horiz-adv-x="444" 
d="M411 0h-105q-14 15 -21 39q-22 -18 -35 -26.5t-37 -17.5t-49 -9q-65 0 -102.5 44.5t-37.5 102.5q0 41 19 75t42.5 54.5t65 39.5t64 26l62.5 19q-11 85 -94 85q-41 0 -110 -36v118q42 4 68 4q51 0 93.5 -9t78.5 -29.5t56.5 -58.5t20.5 -91v-177q0 -72 21 -153zM280 109
v154q-66 -8 -103 -39t-37 -76q0 -34 21 -53t50 -19q44 0 69 33zM341 703h57q-8 -49 -34.5 -82t-72.5 -33q-29 0 -77 19q-48 18 -70 18q-35 0 -43 -44h-57q7 51 35.5 84t75.5 33q21 0 74 -19q50 -20 64 -20q17 0 28 8.5t14 16t6 19.5z" />
    <glyph glyph-name="adieresis" unicode="&#xe4;" horiz-adv-x="444" 
d="M411 0h-105q-14 15 -21 39q-22 -18 -35 -26.5t-37 -17.5t-49 -9q-65 0 -102.5 44.5t-37.5 102.5q0 41 19 75t42.5 54.5t65 39.5t64 26l62.5 19q-11 85 -94 85q-41 0 -110 -36v118q42 4 68 4q51 0 93.5 -9t78.5 -29.5t56.5 -58.5t20.5 -91v-177q0 -72 21 -153zM280 109
v154q-66 -8 -103 -39t-37 -76q0 -34 21 -53t50 -19q44 0 69 33zM71 640q0 26 18.5 44.5t44.5 18.5t44.5 -18.5t18.5 -44.5t-18.5 -44.5t-44.5 -18.5t-44.5 18.5t-18.5 44.5zM247 640q0 26 18.5 44.5t44.5 18.5t44.5 -18.5t18.5 -44.5t-18.5 -44.5t-44.5 -18.5t-44.5 18.5
t-18.5 44.5z" />
    <glyph glyph-name="aring" unicode="&#xe5;" horiz-adv-x="444" 
d="M411 0h-105q-14 15 -21 39q-22 -18 -35 -26.5t-37 -17.5t-49 -9q-65 0 -102.5 44.5t-37.5 102.5q0 41 19 75t42.5 54.5t65 39.5t64 26l62.5 19q-11 85 -94 85q-41 0 -110 -36v118q42 4 68 4q51 0 93.5 -9t78.5 -29.5t56.5 -58.5t20.5 -91v-177q0 -72 21 -153zM280 109
v154q-66 -8 -103 -39t-37 -76q0 -34 21 -53t50 -19q44 0 69 33zM170 664q0 -22 15 -37t37 -15t37 15t15 37t-15 37t-37 15t-37 -15t-15 -37zM116 664q0 44 31 75t75 31t75 -31t31 -75t-31 -75t-75 -31t-75 31t-31 75z" />
    <glyph glyph-name="ae" unicode="&#xe6;" horiz-adv-x="648" 
d="M384 273l87 28q34 11 46.5 22t12.5 32q0 35 -19 60t-44 25q-33 0 -57.5 -38t-25.5 -129zM640 270l-245 -84q2 -14 8 -30t17.5 -35.5t33 -32t49.5 -12.5q50 0 101 45l42 -47q-75 -88 -170 -88q-92 0 -151 76q-88 -76 -169 -76q-65 0 -102.5 44.5t-37.5 102.5q0 41 19 75
t42.5 54.5t65 39.5t64 26l62.5 19q-11 85 -94 85q-41 0 -110 -36v118q42 4 68 4q145 0 204 -74q54 70 131 70q163 0 172 -244zM132 148q0 -34 21 -53t50 -19q44 0 69 33l12 19q-17 78 -14 134q-65 -7 -101.5 -38t-36.5 -76z" />
    <glyph glyph-name="ccedilla" unicode="&#xe7;" horiz-adv-x="389" 
d="M355 510v-125q-32 37 -87 37q-43 0 -79.5 -39t-36.5 -129q0 -50 14 -87.5t36 -56.5t43 -27.5t41 -8.5q46 0 83 37l37 -50q-24 -28 -69.5 -51.5t-93.5 -23.5q-14 0 -21 3l-36 -49l2 -2q12 4 26 4q36 0 63 -21t27 -56q0 -45 -37 -69t-85 -24q-51 0 -103 26l18 40
q37 -16 69 -16q56 0 56 41q0 19 -15 27t-33 8q-21 0 -36 -7l-22 19l64 88q-67 21 -106.5 86t-39.5 143q0 111 80.5 199t200.5 88q22 0 40 -4z" />
    <glyph glyph-name="egrave" unicode="&#xe8;" horiz-adv-x="426" 
d="M404 270l-245 -84q2 -14 8 -30t17.5 -35.5t33 -32t49.5 -12.5q50 0 101 45l42 -47q-75 -88 -170 -88q-87 0 -147.5 70.5t-60.5 181.5q0 108 57 192t143 84q163 0 172 -244zM148 273l87 28q34 11 46.5 22t12.5 32q0 35 -19 60t-44 25q-33 0 -57.5 -38t-25.5 -129zM198 718
l91 -144h-83l-143 144h135z" />
    <glyph glyph-name="eacute" unicode="&#xe9;" horiz-adv-x="426" 
d="M404 270l-245 -84q2 -14 8 -30t17.5 -35.5t33 -32t49.5 -12.5q50 0 101 45l42 -47q-75 -88 -170 -88q-87 0 -147.5 70.5t-60.5 181.5q0 108 57 192t143 84q163 0 172 -244zM148 273l87 28q34 11 46.5 22t12.5 32q0 35 -19 60t-44 25q-33 0 -57.5 -38t-25.5 -129zM228 718
h136l-144 -144h-82z" />
    <glyph glyph-name="ecircumflex" unicode="&#xea;" horiz-adv-x="426" 
d="M404 270l-245 -84q2 -14 8 -30t17.5 -35.5t33 -32t49.5 -12.5q50 0 101 45l42 -47q-75 -88 -170 -88q-87 0 -147.5 70.5t-60.5 181.5q0 108 57 192t143 84q163 0 172 -244zM148 273l87 28q34 11 46.5 22t12.5 32q0 35 -19 60t-44 25q-33 0 -57.5 -38t-25.5 -129zM143 574
h-93l108 144h111l107 -144h-92l-71 89z" />
    <glyph glyph-name="edieresis" unicode="&#xeb;" horiz-adv-x="426" 
d="M404 270l-245 -84q2 -14 8 -30t17.5 -35.5t33 -32t49.5 -12.5q50 0 101 45l42 -47q-75 -88 -170 -88q-87 0 -147.5 70.5t-60.5 181.5q0 108 57 192t143 84q163 0 172 -244zM148 273l87 28q34 11 46.5 22t12.5 32q0 35 -19 60t-44 25q-33 0 -57.5 -38t-25.5 -129zM62 640
q0 26 18.5 44.5t44.5 18.5t44.5 -18.5t18.5 -44.5t-18.5 -44.5t-44.5 -18.5t-44.5 18.5t-18.5 44.5zM238 640q0 26 18.5 44.5t44.5 18.5t44.5 -18.5t18.5 -44.5t-18.5 -44.5t-44.5 -18.5t-44.5 18.5t-18.5 44.5z" />
    <glyph glyph-name="igrave" unicode="&#xec;" horiz-adv-x="241" 
d="M58 500h123q-5 -59 -5 -249q0 -163 8 -251h-123q3 32 4.5 69.5t1.5 64t-0.5 71.5t-0.5 66q0 162 -8 229zM105 718l91 -144h-83l-143 144h135z" />
    <glyph glyph-name="iacute" unicode="&#xed;" horiz-adv-x="241" 
d="M58 500h123q-5 -59 -5 -249q0 -163 8 -251h-123q3 32 4.5 69.5t1.5 64t-0.5 71.5t-0.5 66q0 162 -8 229zM135 718h136l-144 -144h-82z" />
    <glyph glyph-name="icircumflex" unicode="&#xee;" horiz-adv-x="241" 
d="M58 500h123q-5 -59 -5 -249q0 -163 8 -251h-123q3 32 4.5 69.5t1.5 64t-0.5 71.5t-0.5 66q0 162 -8 229zM50 574h-93l108 144h111l107 -144h-92l-71 89z" />
    <glyph glyph-name="idieresis" unicode="&#xef;" horiz-adv-x="241" 
d="M58 500h123q-5 -59 -5 -249q0 -163 8 -251h-123q3 32 4.5 69.5t1.5 64t-0.5 71.5t-0.5 66q0 162 -8 229zM-31 640q0 26 18.5 44.5t44.5 18.5t44.5 -18.5t18.5 -44.5t-18.5 -44.5t-44.5 -18.5t-44.5 18.5t-18.5 44.5zM145 640q0 26 18.5 44.5t44.5 18.5t44.5 -18.5
t18.5 -44.5t-18.5 -44.5t-44.5 -18.5t-44.5 18.5t-18.5 44.5z" />
    <glyph glyph-name="eth" unicode="&#xf0;" horiz-adv-x="463" 
d="M314 250q0 77 -22.5 130.5t-60.5 53.5t-60.5 -53.5t-22.5 -130.5t22.5 -130.5t60.5 -53.5t60.5 53.5t22.5 130.5zM220 578l-112 -51l-26 51l107 48q-32 45 -75 88h134q29 -34 36 -44l96 44l24 -52l-87 -40q52 -80 84.5 -170.5t32.5 -163.5q0 -130 -54 -216t-149 -86
q-93 0 -148 80t-55 184t55 184t148 80q13 0 20 -1q-11 35 -31 65z" />
    <glyph glyph-name="ntilde" unicode="&#xf1;" horiz-adv-x="463" 
d="M47 500h105l11 -51q48 65 117 65q130 0 130 -179q0 -287 8 -335h-121q5 40 5 152q0 10 -1 71.5t-1 78.5q0 60 -13.5 85t-45.5 25q-37 0 -71 -49v-172q0 -115 6 -191h-119q3 150 3 241q0 203 -13 259zM350 703h57q-8 -49 -34.5 -82t-72.5 -33q-30 0 -77 19q-48 18 -70 18
q-35 0 -43 -44h-57q7 51 35.5 84t75.5 33q21 0 74 -19q50 -20 64 -20q17 0 28 8.5t14 16t6 19.5z" />
    <glyph glyph-name="ograve" unicode="&#xf2;" horiz-adv-x="463" 
d="M434 250q0 -104 -55 -184t-148 -80t-148 80t-55 184t55 184t148 80t148 -80t55 -184zM314 250q0 77 -22.5 130.5t-60.5 53.5t-60.5 -53.5t-22.5 -130.5t22.5 -130.5t60.5 -53.5t60.5 53.5t22.5 130.5zM216 718l91 -144h-83l-143 144h135z" />
    <glyph glyph-name="oacute" unicode="&#xf3;" horiz-adv-x="463" 
d="M434 250q0 -104 -55 -184t-148 -80t-148 80t-55 184t55 184t148 80t148 -80t55 -184zM314 250q0 77 -22.5 130.5t-60.5 53.5t-60.5 -53.5t-22.5 -130.5t22.5 -130.5t60.5 -53.5t60.5 53.5t22.5 130.5zM246 718h136l-144 -144h-82z" />
    <glyph glyph-name="ocircumflex" unicode="&#xf4;" horiz-adv-x="463" 
d="M434 250q0 -104 -55 -184t-148 -80t-148 80t-55 184t55 184t148 80t148 -80t55 -184zM314 250q0 77 -22.5 130.5t-60.5 53.5t-60.5 -53.5t-22.5 -130.5t22.5 -130.5t60.5 -53.5t60.5 53.5t22.5 130.5zM161 574h-93l108 144h111l107 -144h-92l-71 89z" />
    <glyph glyph-name="otilde" unicode="&#xf5;" horiz-adv-x="463" 
d="M434 250q0 -104 -55 -184t-148 -80t-148 80t-55 184t55 184t148 80t148 -80t55 -184zM314 250q0 77 -22.5 130.5t-60.5 53.5t-60.5 -53.5t-22.5 -130.5t22.5 -130.5t60.5 -53.5t60.5 53.5t22.5 130.5zM350 703h57q-8 -49 -34.5 -82t-72.5 -33q-30 0 -77 19q-48 18 -70 18
q-35 0 -43 -44h-57q7 51 35.5 84t75.5 33q21 0 74 -19q50 -20 64 -20q17 0 28 8.5t14 16t6 19.5z" />
    <glyph glyph-name="odieresis" unicode="&#xf6;" horiz-adv-x="463" 
d="M434 250q0 -104 -55 -184t-148 -80t-148 80t-55 184t55 184t148 80t148 -80t55 -184zM314 250q0 77 -22.5 130.5t-60.5 53.5t-60.5 -53.5t-22.5 -130.5t22.5 -130.5t60.5 -53.5t60.5 53.5t22.5 130.5zM80 640q0 26 18.5 44.5t44.5 18.5t44.5 -18.5t18.5 -44.5
t-18.5 -44.5t-44.5 -18.5t-44.5 18.5t-18.5 44.5zM256 640q0 26 18.5 44.5t44.5 18.5t44.5 -18.5t18.5 -44.5t-18.5 -44.5t-44.5 -18.5t-44.5 18.5t-18.5 44.5z" />
    <glyph glyph-name="divide" unicode="&#xf7;" horiz-adv-x="600" 
d="M50 209v82h500v-82h-500zM228 457q0 30 21.5 51t50.5 21t50.5 -21.5t21.5 -50.5q0 -27 -21.5 -49.5t-49.5 -22.5q-29 0 -51 21.5t-22 50.5zM228 43q0 30 21.5 51t50.5 21t50.5 -21.5t21.5 -50.5q0 -27 -21.5 -49.5t-49.5 -22.5q-29 0 -51 21.5t-22 50.5z" />
    <glyph glyph-name="oslash" unicode="&#xf8;" horiz-adv-x="463" 
d="M305 336l-130 -223q19 -47 56 -47q38 0 60.5 53.5t22.5 130.5q0 47 -9 86zM157 166l129 223q-20 45 -55 45q-38 0 -60.5 -53.5t-22.5 -130.5q0 -46 9 -84zM123 24l-47 -80l-36 21l52 90q-64 78 -64 195q0 104 55 184t148 80q60 0 106 -37l45 78l37 -23l-50 -86
q65 -77 65 -196q0 -104 -55 -184t-148 -80q-62 0 -108 38z" />
    <glyph glyph-name="ugrave" unicode="&#xf9;" horiz-adv-x="463" 
d="M421 0h-105l-11 51q-48 -65 -117 -65q-130 0 -130 179q0 287 -8 335h121q-5 -40 -5 -152q0 -10 1 -71.5t1 -78.5q0 -60 13.5 -85t45.5 -25q37 0 71 49v172q0 115 -6 191h119q-3 -150 -3 -241q0 -203 13 -259zM216 718l91 -144h-83l-143 144h135z" />
    <glyph glyph-name="uacute" unicode="&#xfa;" horiz-adv-x="463" 
d="M421 0h-105l-11 51q-48 -65 -117 -65q-130 0 -130 179q0 287 -8 335h121q-5 -40 -5 -152q0 -10 1 -71.5t1 -78.5q0 -60 13.5 -85t45.5 -25q37 0 71 49v172q0 115 -6 191h119q-3 -150 -3 -241q0 -203 13 -259zM246 718h136l-144 -144h-82z" />
    <glyph glyph-name="ucircumflex" unicode="&#xfb;" horiz-adv-x="463" 
d="M421 0h-105l-11 51q-48 -65 -117 -65q-130 0 -130 179q0 287 -8 335h121q-5 -40 -5 -152q0 -10 1 -71.5t1 -78.5q0 -60 13.5 -85t45.5 -25q37 0 71 49v172q0 115 -6 191h119q-3 -150 -3 -241q0 -203 13 -259zM161 574h-93l108 144h111l107 -144h-92l-71 89z" />
    <glyph glyph-name="udieresis" unicode="&#xfc;" horiz-adv-x="463" 
d="M421 0h-105l-11 51q-48 -65 -117 -65q-130 0 -130 179q0 287 -8 335h121q-5 -40 -5 -152q0 -10 1 -71.5t1 -78.5q0 -60 13.5 -85t45.5 -25q37 0 71 49v172q0 115 -6 191h119q-3 -150 -3 -241q0 -203 13 -259zM80 640q0 26 18.5 44.5t44.5 18.5t44.5 -18.5t18.5 -44.5
t-18.5 -44.5t-44.5 -18.5t-44.5 18.5t-18.5 44.5zM256 640q0 26 18.5 44.5t44.5 18.5t44.5 -18.5t18.5 -44.5t-18.5 -44.5t-44.5 -18.5t-44.5 18.5t-18.5 44.5z" />
    <glyph glyph-name="yacute" unicode="&#xfd;" horiz-adv-x="407" 
d="M8 500h125q10 -56 41 -166.5t54 -167.5q22 55 44 157.5t30 176.5h104q-63 -293 -159 -520q-39 -91 -85.5 -128.5t-108.5 -37.5q-19 0 -43 7v99q27 -16 57 -16q35 0 54.5 22t53.5 88l-56.5 148t-67.5 184.5t-43 153.5zM218 718h136l-144 -144h-82z" />
    <glyph glyph-name="thorn" unicode="&#xfe;" horiz-adv-x="463" 
d="M44 714h119v-252q20 16 30.5 23.5t36 18t51.5 10.5q71 0 116 -62t45 -159q0 -68 -24 -136.5t-78 -119.5t-124 -51l-48 8q0 -118 6 -180h-118q2 32 2 112v480q0 57 -3 120t-6.5 117.5zM168 382v-305q15 -11 35 -11q61 0 93 59.5t32 141.5q0 73 -24.5 113t-68.5 40
q-16 0 -29.5 -6.5t-20 -12.5t-17.5 -19z" />
    <glyph glyph-name="ydieresis" unicode="&#xff;" horiz-adv-x="407" 
d="M8 500h125q10 -56 41 -166.5t54 -167.5q22 55 44 157.5t30 176.5h104q-63 -293 -159 -520q-39 -91 -85.5 -128.5t-108.5 -37.5q-19 0 -43 7v99q27 -16 57 -16q35 0 54.5 22t53.5 88l-56.5 148t-67.5 184.5t-43 153.5zM52 640q0 26 18.5 44.5t44.5 18.5t44.5 -18.5
t18.5 -44.5t-18.5 -44.5t-44.5 -18.5t-44.5 18.5t-18.5 44.5zM228 640q0 26 18.5 44.5t44.5 18.5t44.5 -18.5t18.5 -44.5t-18.5 -44.5t-44.5 -18.5t-44.5 18.5t-18.5 44.5z" />
    <glyph glyph-name="dotlessi" unicode="&#x131;" horiz-adv-x="241" 
d="M58 500h123q-5 -59 -5 -249q0 -163 8 -251h-123q3 32 4.5 69.5t1.5 64t-0.5 71.5t-0.5 66q0 162 -8 229z" />
    <glyph glyph-name="Lslash" unicode="&#x141;" horiz-adv-x="481" 
d="M332 486v-64l-138 -90q3 -234 3 -240q179 0 263 12v-104h-395q5 138 5 250l-67 -44v64l67 44q0 147 -11 400h140q-5 -137 -5 -203v-116z" />
    <glyph glyph-name="lslash" unicode="&#x142;" horiz-adv-x="222" 
d="M56 281l-56 -38v64l56 38v22q0 260 -6 347h120q-4 -46 -4 -295l56 38v-63l-56 -38q0 -309 6 -356h-122q3 47 6 281z" />
    <glyph glyph-name="OE" unicode="&#x152;" horiz-adv-x="833" 
d="M427 653l-1 60l374 1v-107q-63 15 -186 15q-4 0 -62 -2q-2 -31 -2 -115q0 -38 2 -92l184 6v-108l-186 6q-3 -61 -3 -132q0 -47 3 -93q203 4 266 11v-103h-387l1 57l-2 2q-14 -29 -50 -51t-88 -22q-113 0 -186.5 103.5t-73.5 267.5t73.5 267.5t186.5 103.5q41 -2 78 -22.5
t57 -54.5zM290 640q-60 0 -94 -73.5t-34 -209.5t34 -209.5t94 -73.5q64 0 101 73.5t37 209.5t-37 209.5t-101 73.5z" />
    <glyph glyph-name="oe" unicode="&#x153;" horiz-adv-x="685" 
d="M424 273l87 28q34 11 46.5 22t12.5 32q0 35 -19 60t-44 25q-33 0 -57.5 -38t-25.5 -129zM680 270l-245 -84q2 -14 8 -30t17.5 -35.5t33 -32t49.5 -12.5q50 0 101 45l42 -47q-75 -88 -170 -88q-94 0 -154 80q-57 -80 -147 -80q-93 0 -148 80t-55 184t55 184t148 80
q92 0 151 -84q57 84 142 84q163 0 172 -244zM298 250q0 77 -22.5 130.5t-60.5 53.5t-60.5 -53.5t-22.5 -130.5t22.5 -130.5t60.5 -53.5t60.5 53.5t22.5 130.5z" />
    <glyph glyph-name="Scaron" unicode="&#x160;" horiz-adv-x="500" 
d="M47 24v152q54 -48 95.5 -70.5t87.5 -22.5q52 0 84.5 29t32.5 73q0 41 -31 70.5t-75.5 49.5t-88.5 42.5t-75 61t-31 92.5q0 94 73.5 160.5t181.5 66.5q55 0 96 -19v-137q-53 58 -130 58q-47 0 -75.5 -22.5t-28.5 -60.5q0 -31 22.5 -54t55.5 -36t72.5 -31.5t72.5 -39.5
t55.5 -62.5t22.5 -97.5q0 -107 -73.5 -173.5t-179.5 -66.5q-36 0 -86.5 11.5t-77.5 26.5zM306 788h-111l-108 144h93l70 -89l71 89h92z" />
    <glyph glyph-name="scaron" unicode="&#x161;" horiz-adv-x="370" 
d="M31 17v136q84 -87 155 -87q32 0 50 16.5t18 42.5q0 24 -22 42.5t-54 33t-64 31t-54 45.5t-22 68q0 67 60 118t167 51q36 0 49 -4l7 -106q-51 24 -111 24q-31 0 -48.5 -15t-17.5 -34t22 -35t54 -30t64 -31.5t54 -50t22 -75.5q0 -69 -55.5 -120t-143.5 -51q-45 0 -130 31z
M241 574h-111l-108 144h93l70 -89l71 89h92z" />
    <glyph glyph-name="Ydieresis" unicode="&#x178;" 
d="M0 714h147q12 -39 34.5 -93l50.5 -117t39 -90l40.5 93.5l47.5 111.5t37 95h125l-111 -215.5t-90 -186.5q0 -217 5 -312h-126q1 99 1 298l-61 131l-73 156t-66 129zM108 854q0 26 18.5 44.5t44.5 18.5t44.5 -18.5t18.5 -44.5t-18.5 -44.5t-44.5 -18.5t-44.5 18.5
t-18.5 44.5zM284 854q0 26 18.5 44.5t44.5 18.5t44.5 -18.5t18.5 -44.5t-18.5 -44.5t-44.5 -18.5t-44.5 18.5t-18.5 44.5z" />
    <glyph glyph-name="Zcaron" unicode="&#x17d;" horiz-adv-x="481" 
d="M28 0v67l273 553q-181 0 -251 -13v107h401v-62l-276 -558q116 0 279 7v-101h-426zM296 788h-111l-108 144h93l70 -89l71 89h92z" />
    <glyph glyph-name="zcaron" unicode="&#x17e;" horiz-adv-x="370" 
d="M16 0v73q146 236 205 349q-126 0 -189 -8v86h326v-58l-211 -362q17 0 107 1.5t106 2.5v-84h-344zM241 574h-111l-108 144h93l70 -89l71 89h92z" />
    <glyph glyph-name="florin" unicode="&#x192;" 
d="M60 -173l11 87q13 -12 38 -12t39 20.5t22 78.5l44 309h-95l8 66h93l12 96q27 222 194 222q25 0 40 -6l-11 -81q-14 7 -32 7q-38 0 -56.5 -31.5t-22.5 -73.5l-17 -133h96l-9 -67h-95l-36 -283q-12 -96 -53.5 -151t-131.5 -55q-20 0 -38 7z" />
    <glyph glyph-name="circumflex" unicode="&#x2c6;" horiz-adv-x="241" 
d="M50 574h-93l108 144h111l107 -144h-92l-71 89z" />
    <glyph glyph-name="caron" unicode="&#x2c7;" horiz-adv-x="241" 
d="M176 574h-111l-108 144h93l70 -89l71 89h92z" />
    <glyph glyph-name="breve" unicode="&#x2d8;" horiz-adv-x="241" 
d="M-38 720h58q6 -35 35 -54.5t70 -19.5q86 0 103 74h57q-2 -14 -4 -26t-12.5 -35.5t-27 -39.5t-48.5 -28.5t-75 -12.5q-70 0 -110 36.5t-46 105.5z" />
    <glyph glyph-name="dotaccent" unicode="&#x2d9;" horiz-adv-x="241" 
d="M58 640q0 26 18.5 44.5t44.5 18.5t44.5 -18.5t18.5 -44.5t-18.5 -44.5t-44.5 -18.5t-44.5 18.5t-18.5 44.5z" />
    <glyph glyph-name="ring" unicode="&#x2da;" horiz-adv-x="241" 
d="M68 664q0 -22 15 -37t37 -15t37 15t15 37t-15 37t-37 15t-37 -15t-15 -37zM14 664q0 44 31 75t75 31t75 -31t31 -75t-31 -75t-75 -31t-75 31t-31 75z" />
    <glyph glyph-name="ogonek" unicode="&#x2db;" horiz-adv-x="241" 
d="M258 19v-9q-150 -58 -150 -122q0 -24 13 -38t36 -14q42 0 103 41l17 -32q-90 -59 -151 -59q-40 0 -70 25t-30 63q0 34 25.5 61t67.5 43.5t73.5 25.5t65.5 15z" />
    <glyph glyph-name="tilde" unicode="&#x2dc;" horiz-adv-x="241" 
d="M239 703h57q-8 -49 -34.5 -82t-72.5 -33q-29 0 -77 19q-48 18 -70 18q-35 0 -43 -44h-57q7 51 35.5 84t75.5 33q21 0 74 -19q50 -20 64 -20q17 0 28 8.5t14 16t6 19.5z" />
    <glyph glyph-name="hungarumlaut" unicode="&#x2dd;" horiz-adv-x="241" 
d="M35 718h136l-144 -144h-82zM235 718h136l-144 -144h-82z" />
    <glyph glyph-name="endash" unicode="&#x2013;" horiz-adv-x="500" 
d="M0 294h500v-88h-500v88z" />
    <glyph glyph-name="emdash" unicode="&#x2014;" horiz-adv-x="1000" 
d="M0 294h1000v-88h-1000v88z" />
    <glyph glyph-name="quoteleft" unicode="&#x2018;" horiz-adv-x="259" 
d="M186 728l29 -34q-14 -10 -28.5 -24.5t-31.5 -41.5t-16 -50q27 -6 43.5 -25t16.5 -43q0 -27 -19 -45.5t-48 -18.5q-32 0 -52.5 25t-20.5 60q0 49 31 100.5t96 96.5z" />
    <glyph glyph-name="quoteright" unicode="&#x2019;" horiz-adv-x="259" 
d="M73 442l-29 34q14 10 28.5 24.5t31.5 41.5t16 50q-27 6 -43.5 25t-16.5 43q0 27 19 45.5t48 18.5q32 0 52.5 -25t20.5 -60q0 -49 -31 -100.5t-96 -96.5z" />
    <glyph glyph-name="quotesinglbase" unicode="&#x201a;" horiz-adv-x="222" 
d="M51 -154l-29 34q14 10 28.5 24.5t31.5 41.5t16 50q-27 6 -43.5 25t-16.5 43q0 27 19 45.5t48 18.5q32 0 52.5 -25t20.5 -60q0 -49 -31 -100.5t-96 -96.5z" />
    <glyph glyph-name="quotedblleft" unicode="&#x201c;" horiz-adv-x="370" 
d="M149 728l29 -34q-14 -10 -28.5 -24.5t-31.5 -41.5t-16 -50q27 -6 43.5 -25t16.5 -43q0 -27 -19 -45.5t-48 -18.5q-32 0 -52.5 25t-20.5 60q0 49 31 100.5t96 96.5zM319 728l29 -34q-14 -10 -28.5 -24.5t-31.5 -41.5t-16 -50q27 -6 43.5 -25t16.5 -43q0 -27 -19 -45.5
t-48 -18.5q-32 0 -52.5 25t-20.5 60q0 49 31 100.5t96 96.5z" />
    <glyph glyph-name="quotedblright" unicode="&#x201d;" horiz-adv-x="370" 
d="M221 442l-29 34q14 10 28.5 24.5t31.5 41.5t16 50q-27 6 -43.5 25t-16.5 43q0 27 19 45.5t48 18.5q32 0 52.5 -25t20.5 -60q0 -49 -31 -100.5t-96 -96.5zM51 442l-29 34q14 10 28.5 24.5t31.5 41.5t16 50q-27 6 -43.5 25t-16.5 43q0 27 19 45.5t48 18.5q32 0 52.5 -25
t20.5 -60q0 -49 -31 -100.5t-96 -96.5z" />
    <glyph glyph-name="quotedblbase" unicode="&#x201e;" horiz-adv-x="370" 
d="M221 -154l-29 34q14 10 28.5 24.5t31.5 41.5t16 50q-27 6 -43.5 25t-16.5 43q0 27 19 45.5t48 18.5q32 0 52.5 -25t20.5 -60q0 -49 -31 -100.5t-96 -96.5zM51 -154l-29 34q14 10 28.5 24.5t31.5 41.5t16 50q-27 6 -43.5 25t-16.5 43q0 27 19 45.5t48 18.5q32 0 52.5 -25
t20.5 -60q0 -49 -31 -100.5t-96 -96.5z" />
    <glyph glyph-name="dagger" unicode="&#x2020;" 
d="M202 227v155h-56.5t-56 -0.5t-44 -1t-20.5 -0.5v103q1 0 34.5 -0.5t76.5 -1.5t66 -1q2 37 0.5 123t-2.5 111h119q-4 -86 -2 -234q96 1 176 4v-104q-48 2 -177 2v-153q0 -80 2 -232t2 -170h-123q4 60 5 124.5t0.5 151.5t-0.5 124z" />
    <glyph glyph-name="daggerdbl" unicode="&#x2021;" 
d="M200 714h125q-1 -15 -4 -108t-3 -111q12 0 41 0.5t70.5 1.5t62.5 1v-105q-78 3 -174 3v-239q119 1 173 6v-104q-157 5 -173 3v-108q0 -77 5 -130h-126q7 122 7 130v109q-82 3 -176 -4v104q125 -5 176 -6v241q-127 0 -176 -5l1 105q31 0 175 -6q-4 220 -4 222z" />
    <glyph glyph-name="bullet" unicode="&#x2022;" horiz-adv-x="500" 
d="M72 357q0 74 52 126.5t126 52.5t126.5 -52.5t52.5 -126.5t-52.5 -126t-126.5 -52t-126 52t-52 126z" />
    <glyph glyph-name="ellipsis" unicode="&#x2026;" horiz-adv-x="1000" 
d="M98 59q0 29 20 49t49 20t49 -20t20 -49t-20 -49t-49 -20t-49 20t-20 49zM431 59q0 29 20.5 49t48.5 20t48.5 -20t20.5 -49t-20.5 -49t-48.5 -20t-48.5 20t-20.5 49zM764 59q0 29 20 49t49 20t49 -20t20 -49t-20 -49t-49 -20t-49 20t-20 49z" />
    <glyph glyph-name="perthousand" unicode="&#x2030;" horiz-adv-x="1166" 
d="M982 394q-60 0 -60 -173t60 -173t60 173t-60 173zM982 450q62 0 106 -58.5t44 -170.5t-44 -170.5t-106 -58.5t-106 58.5t-44 170.5t44 170.5t106 58.5zM174 684q62 0 106 -58.5t44 -170.5t-44 -170.5t-106 -58.5t-106 58.5t-44 170.5t44 170.5t106 58.5zM174 628
q-60 0 -60 -173t60 -173t60 173t-60 173zM658 394q-60 0 -60 -173t60 -173t60 173t-60 173zM658 450q62 0 106 -58.5t44 -170.5t-44 -170.5t-106 -58.5t-106 58.5t-44 170.5t44 170.5t106 58.5zM204 -12l361 702h61l-361 -702h-61z" />
    <glyph glyph-name="guilsinglleft" unicode="&#x2039;" horiz-adv-x="241" 
d="M36 219v82l162 119v-77l-117 -82l117 -81v-80z" />
    <glyph glyph-name="guilsinglright" unicode="&#x203a;" horiz-adv-x="241" 
d="M205 301v-82l-162 -119v80l117 81l-117 82v77z" />
    <glyph glyph-name="fraction" unicode="&#x2044;" horiz-adv-x="167" 
d="M-167 -12l437 702h64l-437 -702h-64z" />
    <glyph glyph-name="fraction" unicode="&#x2215;" horiz-adv-x="167" 
d="M-167 -12l437 702h64l-437 -702h-64z" />
    <glyph glyph-name="Euro" unicode="&#x20ac;" 
d="M478 656v-107q-44 42 -129 42q-126 0 -145 -135h242l-28 -84h-224q-1 -8 -1 -29q0 -24 1 -32h203l-28 -84h-165q20 -139 146 -139q81 0 128 41v-108q-43 -32 -145 -32q-204 0 -238 238h-76l28 84h39q-2 16 -2 32q0 11 2 29h-67l28 84h46q37 234 240 234q95 0 145 -34z
" />
    <glyph glyph-name="trademark" unicode="&#x2122;" horiz-adv-x="993" 
d="M391 714v-64h-125v-348h-82v348h-125v64h332zM591 714l113 -292l112 292h116v-412h-76v324h-2l-123 -324h-56l-123 324h-2v-324h-76v412h117z" />
    <glyph glyph-name="minus" unicode="&#x2212;" horiz-adv-x="600" 
d="M50 209v82h500v-82h-500z" />
    <glyph glyph-name="fi" unicode="&#xfb01;" horiz-adv-x="481" 
d="M308 500h123q-5 -59 -5 -249q0 -163 8 -251h-123q3 32 4.5 69.5t1.5 64t-0.5 71.5t-0.5 66q0 162 -8 229zM373 714q28 0 46.5 -21.5t18.5 -56.5q0 -33 -18.5 -56.5t-50.5 -23.5q-31 0 -48 23.5t-17 53.5q0 34 19.5 57.5t49.5 23.5zM274 716v-82q-18 6 -35 6
q-24 0 -38.5 -26t-14.5 -75v-39h82v-78h-82v-110q0 -247 6 -312h-124q8 101 8 193v229h-71v78h71q0 63 14.5 109.5t55 78.5t103.5 32q13 0 25 -4z" />
    <glyph glyph-name="fl" unicode="&#xfb02;" horiz-adv-x="481" 
d="M308 714h120q-4 -52 -4 -335q0 -329 6 -379h-122q6 84 6 367q0 260 -6 347zM274 716v-82q-18 6 -35 6q-24 0 -38.5 -26t-14.5 -75v-39h82v-78h-82v-110q0 -247 6 -312h-124q8 101 8 193v229h-71v78h71q0 63 14.5 109.5t55 78.5t103.5 32q13 0 25 -4z" />
    </font>
</defs>
</svg>
