<svg xmlns="http://www.w3.org/2000/svg" viewBox="0 0 1084.93 1122.52"><defs><style>.cls-1,.cls-5{fill:#fff;}.cls-2{fill:#ff671b;}.cls-3{fill:#2e2a25;}.cls-4,.cls-5,.cls-9{font-size:213.83px;font-family:Folio-Bold, Folio;font-weight:700;}.cls-4,.cls-6,.cls-7{stroke:#000;}.cls-10,.cls-11,.cls-4,.cls-5,.cls-6,.cls-7,.cls-9{stroke-miterlimit:10;}.cls-4{stroke-width:30px;}.cls-5{stroke:#fff;stroke-width:1.91px;}.cls-10,.cls-6,.cls-7,.cls-8{font-size:275.49px;font-family:ClearfaceGothicLH-Black, Clearface Gothic LH;}.cls-6{stroke-width:28.43px;}.cls-7{stroke-width:32.92px;}.cls-8{fill:#fffffe;}.cls-10,.cls-11,.cls-9{fill:none;stroke:#ff671b;}.cls-10,.cls-9{stroke-width:5px;}.cls-11{stroke-width:3px;}</style></defs><title>Asset 2</title><g id="Layer_2" data-name="Layer 2"><g id="Layer_2-2" data-name="Layer 2"><rect x="161.54" y="303.7" width="26.41" height="26.41"/><path d="M369.47,67l.56-5.39,0-.27H364l.56-5.39a131.27,131.27,0,0,0,.71-15.24V21.62a131.32,131.32,0,0,0-.71-15.24L364,1h46l-.68,5.48,0,.18h2.31A21.42,21.42,0,0,1,426.8,0a21,21,0,0,1,12.86,4.52L439.17,1H481.6l-.76,5.54s0,.08,0,.12h4.39l0-.27L484.63,1h18.82l1.41,2.45,1.83,3.21h2.23l1.41,2.45.19.33c-.08-1-.17-2-.28-3.06L509.65,1h21l-.56,5.39,0,.27h6.06L535.59,12c-.35,3.35-.53,6.14-.62,8.58h7.81a127,127,0,0,0-.71-14.24L541.51,1h26.92a18.38,18.38,0,0,1,12.24,4.57L580.19,1h39V6.65h4L621.89,1h24.63l.56,4.23c.06.44.15.93.24,1.43H652l.56,4.23c.18,1.34.53,3,.92,4.64-.08-2.58-.26-5.54-.63-9.15L652.27,1h17.84c5.59,0,9.72.72,13.28,2.37L682.49,1h28V5.87a5.73,5.73,0,0,0,.09.79h.76c.17-.66.34-1.29.47-1.87L712.65,1h23.23l-2.69,5.66h8.15l-3.31,7c-4.74,10-8.86,19.93-13,30.07v7a97,97,0,0,0,.73,10.59l.48,4.26a47,47,0,0,1,8.3-.75c15.58,0,31.25,7.68,42.28,22.64-.19-2.33-.42-4.76-.69-7.35l-1.36-12.92H819.9L823.27,73c1.49,2.6,2.93,5.13,4.38,7.68H833l3.37,5.88.45.8c-.19-2.33-.41-4.73-.68-7.32l-1.36-12.91h93.64l-1.36,12.91-.07.65h14.52l-1.36,12.91a314.77,314.77,0,0,0-1.7,36.52v45.91a314.75,314.75,0,0,0,1.7,36.52l1.36,12.91H854.25L850.82,220c-1.76-2.8-3.42-5.47-5-8.09h-4.62l-3.44-5.47-.18-.29c.18,2,.37,4.16.61,6.41l1.36,12.91H787.88l1.36-12.91c0-.22,0-.43.06-.65h-5.12c-10.39,10.53-23.49,15.94-36.54,15.94-12.71,0-25.49-5.12-35.75-15.12l7.36,12.74H520.62L522,212.58l.07-.65H507.52L508.88,199c1-9.49,1.41-17.12,1.58-23.72a76.79,76.79,0,0,1-21.92,4.77,300.56,300.56,0,0,0,1.7,32.51l1.36,12.91H431.14l1.36-12.91c0-.22,0-.43.07-.65H418L419.4,199c1-9.62,1.42-17.32,1.59-24a76,76,0,0,1-22.52,5,300.77,300.77,0,0,0,1.7,32.51l1.36,12.91H264.11l1.36-12.92.07-.65H251L252.38,199c1-9.49,1.41-17.12,1.58-23.72A76.79,76.79,0,0,1,232,180.07a300.56,300.56,0,0,0,1.7,32.51l1.36,12.91H174.63L176,212.58l.07-.65H161.54L162.9,199a314.38,314.38,0,0,0,1.71-36.52v-45.9a314.33,314.33,0,0,0-1.71-36.52l-1.36-12.92H221c12.38,0,22.91,3.36,31,9.38l-1-9.38H369.45Z"/><path class="cls-1" d="M383.57,5.87c-.18,2-.49,6.1-.49,9.93v9.5h7.75V15.8c0-3.83-.31-7.94-.49-9.93h14.14a134,134,0,0,0-.74,15.75V40.77a116.38,116.38,0,0,0,.8,15.75h-14.2c.18-2,.49-6.1.49-9.93V34.67h-7.75V46.58c0,3.83.31,7.94.49,9.93H369.42a135.85,135.85,0,0,0,.74-15.75V21.62a135.86,135.86,0,0,0-.74-15.75Z"/><path class="cls-1" d="M407.74,31.19c0-17.73,10.08-26.32,19.06-26.32s19.06,8.58,19.06,26.32S435.78,57.51,426.8,57.51,407.74,48.92,407.74,31.19Zm14.39,0c0,11.14,2,17,4.67,17s4.67-5.82,4.67-17-2-17-4.67-17S422.13,20.06,422.13,31.19Z"/><path class="cls-1" d="M476,5.87a36.87,36.87,0,0,0-.18,4.82,36.9,36.9,0,0,0,.18,4.82,53.16,53.16,0,0,0-5.53-.28h-3.63V29a274.36,274.36,0,0,0,1,27.52H452.94a274.36,274.36,0,0,0,1-27.52V15.23H450.3a53.19,53.19,0,0,0-5.53.28,36.92,36.92,0,0,0,.18-4.82,36.89,36.89,0,0,0-.18-4.82Z"/><path class="cls-1" d="M487.34,34.24V43H471.1v-8.8Z"/><path class="cls-1" d="M500.62,5.87c5.16,9,10.21,18.09,15.06,27.31h.12V21.62a135.86,135.86,0,0,0-.74-15.75h10.21a135.86,135.86,0,0,0-.74,15.75V40.77a135.85,135.85,0,0,0,.74,15.75H515c-7.44-11.84-11.62-19.36-14.88-25.39H500v9.65a135.83,135.83,0,0,0,.74,15.75H490a135.85,135.85,0,0,0,.74-15.75V21.62A135.86,135.86,0,0,0,490,5.87Z"/><path class="cls-1" d="M544.22,34.24V43H528v-8.8Z"/><path class="cls-1" d="M568.39,5.87c8.73.07,13.71,6.81,13.71,14.61,0,6.38-3.69,11.35-7.38,13.33,5.66,14,7.62,19.72,9.35,22.7H568.39c-2.4-8.3-4.67-15.32-6.15-19.86h-1.66v13a51.69,51.69,0,0,0,.43,6.88H546.93a135.85,135.85,0,0,0,.74-15.75V21.62a135.86,135.86,0,0,0-.74-15.75Zm-7.81,21.28a7.51,7.51,0,0,0,1.54.14c3.75,0,6-1.77,6-5.82,0-3.83-2.34-6.24-5.9-6.24a8.61,8.61,0,0,0-1.6.14Z"/><path class="cls-1" d="M586.35,21.62a135.86,135.86,0,0,0-.74-15.75h28.66v9.65c-3.87-.21-10-.57-15.37-.57V26.58c5,0,9-.21,11.31-.35v9.36c-2.34-.14-6.33-.35-11.31-.35v12.2h5.72a86.1,86.1,0,0,0,10.7-.78v9.86h-29.7a135.85,135.85,0,0,0,.74-15.75Z"/><path class="cls-1" d="M642.25,5.87a90.14,90.14,0,0,0,2,9.22l6.58,25c2.09,7.87,3.38,12.13,4.86,16.38H641.08c-.31-1.56-.92-4.61-2-8.58H627.92a48.81,48.81,0,0,0-2,8.58H615.68c1.23-3.26,2.46-7.52,3.94-13l7.56-27c.74-2.69,1.23-4.47,1.66-6.24l-.92-4.33ZM637,38.28c-1.66-6.6-2.58-11.2-3.07-13.83h-.12c-1,4.68-1.91,8.16-3.51,13.83Z"/><path class="cls-1" d="M657.69,56.51a135.83,135.83,0,0,0,.74-15.75V21.62a135.85,135.85,0,0,0-.74-15.75h12.42c7.26,0,11.32,1.21,15.19,4.47,5,4.26,7.69,10.43,7.69,20.07,0,7.73-1.54,16.38-7.38,21.77-4.06,3.76-10.76,4.33-15.44,4.33Zm13.65-8.79h.43c5,0,7.69-3.26,7.69-17.09,0-11.92-3.26-15.39-7.56-15.39h-.55Z"/><path class="cls-1" d="M705.6,5.87c0,2.55,2.21,9.79,5,18.16a136.51,136.51,0,0,0,6-18.16h11.62c-4.92,10.36-9.22,20.78-13.47,31.21V45a104.42,104.42,0,0,0,.8,11.49H700.61a104.42,104.42,0,0,0,.8-11.49v-7.8L689.55,5.87Z"/><path class="cls-2" d="M383.57,5.87c-.18,2-.49,6.1-.49,9.93v9.5h7.75V15.8c0-3.83-.31-7.94-.49-9.93h14.14a134,134,0,0,0-.74,15.75V40.77a116.38,116.38,0,0,0,.8,15.75h-14.2c.18-2,.49-6.1.49-9.93V34.67h-7.75V46.58c0,3.83.31,7.94.49,9.93H369.42a135.85,135.85,0,0,0,.74-15.75V21.62a135.86,135.86,0,0,0-.74-15.75Z"/><path class="cls-2" d="M407.74,31.19c0-17.73,10.08-26.32,19.06-26.32s19.06,8.58,19.06,26.32S435.78,57.51,426.8,57.51,407.74,48.92,407.74,31.19Zm14.39,0c0,11.14,2,17,4.67,17s4.67-5.82,4.67-17-2-17-4.67-17S422.13,20.06,422.13,31.19Z"/><path class="cls-2" d="M476,5.87a36.87,36.87,0,0,0-.18,4.82,36.9,36.9,0,0,0,.18,4.82,53.16,53.16,0,0,0-5.53-.28h-3.63V29a274.36,274.36,0,0,0,1,27.52H452.94a274.36,274.36,0,0,0,1-27.52V15.23H450.3a53.19,53.19,0,0,0-5.53.28,36.92,36.92,0,0,0,.18-4.82,36.89,36.89,0,0,0-.18-4.82Z"/><path class="cls-2" d="M487.34,34.24V43H471.1v-8.8Z"/><path class="cls-2" d="M500.62,5.87c5.16,9,10.21,18.09,15.06,27.31h.12V21.62a135.86,135.86,0,0,0-.74-15.75h10.21a135.86,135.86,0,0,0-.74,15.75V40.77a135.85,135.85,0,0,0,.74,15.75H515c-7.44-11.84-11.62-19.36-14.88-25.39H500v9.65a135.83,135.83,0,0,0,.74,15.75H490a135.85,135.85,0,0,0,.74-15.75V21.62A135.86,135.86,0,0,0,490,5.87Z"/><path class="cls-2" d="M544.22,34.24V43H528v-8.8Z"/><path class="cls-2" d="M568.39,5.87c8.73.07,13.71,6.81,13.71,14.61,0,6.38-3.69,11.35-7.38,13.33,5.66,14,7.62,19.72,9.35,22.7H568.39c-2.4-8.3-4.67-15.32-6.15-19.86h-1.66v13a51.69,51.69,0,0,0,.43,6.88H546.93a135.85,135.85,0,0,0,.74-15.75V21.62a135.86,135.86,0,0,0-.74-15.75Zm-7.81,21.28a7.51,7.51,0,0,0,1.54.14c3.75,0,6-1.77,6-5.82,0-3.83-2.34-6.24-5.9-6.24a8.61,8.61,0,0,0-1.6.14Z"/><path class="cls-2" d="M586.35,21.62a135.86,135.86,0,0,0-.74-15.75h28.66v9.65c-3.87-.21-10-.57-15.37-.57V26.58c5,0,9-.21,11.31-.35v9.36c-2.34-.14-6.33-.35-11.31-.35v12.2h5.72a86.1,86.1,0,0,0,10.7-.78v9.86h-29.7a135.85,135.85,0,0,0,.74-15.75Z"/><path class="cls-2" d="M642.25,5.87a90.14,90.14,0,0,0,2,9.22l6.58,25c2.09,7.87,3.38,12.13,4.86,16.38H641.08c-.31-1.56-.92-4.61-2-8.58H627.92a48.81,48.81,0,0,0-2,8.58H615.68c1.23-3.26,2.46-7.52,3.94-13l7.56-27c.74-2.69,1.23-4.47,1.66-6.24l-.92-4.33ZM637,38.28c-1.66-6.6-2.58-11.2-3.07-13.83h-.12c-1,4.68-1.91,8.16-3.51,13.83Z"/><path class="cls-2" d="M657.69,56.51a135.83,135.83,0,0,0,.74-15.75V21.62a135.85,135.85,0,0,0-.74-15.75h12.42c7.26,0,11.32,1.21,15.19,4.47,5,4.26,7.69,10.43,7.69,20.07,0,7.73-1.54,16.38-7.38,21.77-4.06,3.76-10.76,4.33-15.44,4.33Zm13.65-8.79h.43c5,0,7.69-3.26,7.69-17.09,0-11.92-3.26-15.39-7.56-15.39h-.55Z"/><path class="cls-2" d="M705.6,5.87c0,2.55,2.21,9.79,5,18.16a136.51,136.51,0,0,0,6-18.16h11.62c-4.92,10.36-9.22,20.78-13.47,31.21V45a104.42,104.42,0,0,0,.8,11.49H700.61a104.42,104.42,0,0,0,.8-11.49v-7.8L689.55,5.87Z"/><path d="M731.62,61.65a2.46,2.46,0,1,1,.72-1.74A2.36,2.36,0,0,1,731.62,61.65Zm-3.23-3.23a2,2,0,0,0-.61,1.49,2.07,2.07,0,0,0,.61,1.5,2.11,2.11,0,0,0,3,0,2.06,2.06,0,0,0,.62-1.5,2.11,2.11,0,0,0-3.6-1.49Zm1.44.14a2.08,2.08,0,0,1,.74.1.67.67,0,0,1,.42.68.59.59,0,0,1-.26.53,1,1,0,0,1-.39.13.65.65,0,0,1,.46.26.73.73,0,0,1,.15.42v.2c0,.06,0,.13,0,.2a.43.43,0,0,0,0,.14l0,0h-.44v-.36a.66.66,0,0,0-.25-.62,1.16,1.16,0,0,0-.53-.09h-.37v1.06h-.47V58.56Zm.51.42a1.23,1.23,0,0,0-.58-.1h-.41v1h.43a1.29,1.29,0,0,0,.45-.06.48.48,0,0,0,.1-.81Z"/><path class="cls-1" d="M176.29,116.59a325.42,325.42,0,0,0-1.77-37.74H221c27.27,0,37.59,18.53,37.59,37.74,0,28.9-21.23,38.59-48.94,38.59h-2.36v7.31A325.77,325.77,0,0,0,209,200.24H174.52a325.43,325.43,0,0,0,1.77-37.74Zm31,16.32a16.6,16.6,0,0,0,4.27.51c7.37,0,13.42-5.27,13.42-15.81,0-9.86-5.45-15.64-13.71-15.64a34,34,0,0,0-4,.34Z"/><path class="cls-1" d="M265.77,116.59A325.75,325.75,0,0,0,264,78.85H332.7V102c-9.29-.51-24-1.36-36.85-1.36v27.88c11.94,0,21.52-.51,27.12-.85v22.44c-5.6-.34-15.18-.85-27.12-.85v29.24h13.71a206.24,206.24,0,0,0,25.65-1.87v23.63H264a325.75,325.75,0,0,0,1.77-37.74Z"/><path class="cls-1" d="M342.73,116.59A325.42,325.42,0,0,0,341,78.85h46.43c27.27,0,37.59,18.53,37.59,37.74,0,28.9-21.23,38.59-48.94,38.59h-2.36v7.31a325.77,325.77,0,0,0,1.77,37.74H341a325.43,325.43,0,0,0,1.77-37.74Zm31,16.32a16.62,16.62,0,0,0,4.27.51c7.37,0,13.42-5.27,13.42-15.81,0-9.86-5.45-15.64-13.71-15.64a34,34,0,0,0-4,.34Z"/><path class="cls-1" d="M432.8,116.59A325.76,325.76,0,0,0,431,78.85h46.43c27.27,0,37.59,18.53,37.59,37.74,0,28.9-21.23,38.59-48.94,38.59h-2.36v7.31a325.43,325.43,0,0,0,1.77,37.74H431a325.77,325.77,0,0,0,1.77-37.74Zm31,16.32a16.6,16.6,0,0,0,4.27.51c7.37,0,13.42-5.27,13.42-15.81,0-9.86-5.45-15.64-13.71-15.64a34,34,0,0,0-4,.34Z"/><path class="cls-1" d="M522.28,116.59a326.09,326.09,0,0,0-1.77-37.74H589.2V102c-9.29-.51-24-1.36-36.85-1.36v27.88c11.94,0,21.52-.51,27.13-.85v22.44c-5.6-.34-15.19-.85-27.13-.85v29.24h13.71a206.27,206.27,0,0,0,25.65-1.87v23.63h-71.2a326.1,326.1,0,0,0,1.77-37.74Z"/><path class="cls-1" d="M648.32,78.85c20.93.17,32.87,16.32,32.87,35,0,15.3-8.84,27.2-17.69,32,13.56,33.66,18.28,47.27,22.41,54.41H648.32c-5.75-19.89-11.2-36.72-14.74-47.61h-4v31.11a124.14,124.14,0,0,0,1,16.49H596.87a325.77,325.77,0,0,0,1.77-37.74V116.59a325.76,325.76,0,0,0-1.77-37.74Zm-18.72,51a18,18,0,0,0,3.68.34c9,0,14.3-4.25,14.3-13.94,0-9.18-5.6-15-14.15-15a20.7,20.7,0,0,0-3.83.34Z"/><path class="cls-1" d="M688.86,139.54c0-42.5,24.17-63.08,45.7-63.08s45.7,20.57,45.7,63.08-24.17,63.08-45.7,63.08S688.86,182,688.86,139.54Zm34.49,0c0,26.69,4.86,40.63,11.2,40.63s11.2-13.94,11.2-40.63-4.86-40.63-11.2-40.63S723.35,112.85,723.35,139.54Z"/><path class="cls-1" d="M813.13,78.85q18.58,32.39,36.12,65.46h.29V116.59a325.75,325.75,0,0,0-1.77-37.74h24.47a325.76,325.76,0,0,0-1.77,37.74V162.5a325.77,325.77,0,0,0,1.77,37.74H847.62c-17.83-28.39-27.86-46.42-35.67-60.87h-.3V162.5a325.45,325.45,0,0,0,1.77,37.74H787.77a325.43,325.43,0,0,0,1.77-37.74V116.59a325.42,325.42,0,0,0-1.77-37.74Z"/><path class="cls-1" d="M915.44,78.85a325.1,325.1,0,0,0-1.77,37.74V162.5a325.11,325.11,0,0,0,1.77,37.74h-34.5a325.75,325.75,0,0,0,1.77-37.74V116.59a325.75,325.75,0,0,0-1.77-37.74Z"/><rect class="cls-3" x="959.94" y="888.64" width="70.51" height="115.06"/><rect x="78.85" y="836.02" width="144.74" height="161.09"/><text class="cls-4" transform="translate(47.23 405.08) scale(0.92 1)">$</text><text class="cls-4" transform="translate(35.73 395.16) scale(0.92 1)">$</text><text class="cls-5" transform="translate(35.73 395.16) scale(0.92 1)">$</text><rect class="cls-3" x="785.38" y="848.97" width="63.56" height="161.09"/><text class="cls-6" transform="translate(38.86 1039.44)">GRANDE</text><text class="cls-7" transform="translate(26.86 1025.03)">GRANDE</text><text class="cls-8" transform="translate(26.86 1025.03)">GRANDE</text><text class="cls-9" transform="translate(35.73 395.16) scale(0.92 1)">$</text><text class="cls-10" transform="translate(26.86 1025.03)">GRANDE</text><path class="cls-11" d="M176.29,116.59a325.42,325.42,0,0,0-1.77-37.74H221c27.27,0,37.59,18.53,37.59,37.74,0,28.9-21.23,38.59-48.94,38.59h-2.36v7.31A325.77,325.77,0,0,0,209,200.24H174.52a325.43,325.43,0,0,0,1.77-37.74Zm31,16.32a16.6,16.6,0,0,0,4.27.51c7.37,0,13.42-5.27,13.42-15.81,0-9.86-5.45-15.64-13.71-15.64a34,34,0,0,0-4,.34Z"/><path class="cls-11" d="M265.77,116.59A325.75,325.75,0,0,0,264,78.85H332.7V102c-9.29-.51-24-1.36-36.85-1.36v27.88c11.94,0,21.52-.51,27.12-.85v22.44c-5.6-.34-15.18-.85-27.12-.85v29.24h13.71a206.24,206.24,0,0,0,25.65-1.87v23.63H264a325.75,325.75,0,0,0,1.77-37.74Z"/><path class="cls-11" d="M342.73,116.59A325.42,325.42,0,0,0,341,78.85h46.43c27.27,0,37.59,18.53,37.59,37.74,0,28.9-21.23,38.59-48.94,38.59h-2.36v7.31a325.77,325.77,0,0,0,1.77,37.74H341a325.43,325.43,0,0,0,1.77-37.74Zm31,16.32a16.62,16.62,0,0,0,4.27.51c7.37,0,13.42-5.27,13.42-15.81,0-9.86-5.45-15.64-13.71-15.64a34,34,0,0,0-4,.34Z"/><path class="cls-11" d="M432.8,116.59A325.76,325.76,0,0,0,431,78.85h46.43c27.27,0,37.59,18.53,37.59,37.74,0,28.9-21.23,38.59-48.94,38.59h-2.36v7.31a325.43,325.43,0,0,0,1.77,37.74H431a325.77,325.77,0,0,0,1.77-37.74Zm31,16.32a16.6,16.6,0,0,0,4.27.51c7.37,0,13.42-5.27,13.42-15.81,0-9.86-5.45-15.64-13.71-15.64a34,34,0,0,0-4,.34Z"/><path class="cls-11" d="M522.28,116.59a326.09,326.09,0,0,0-1.77-37.74H589.2V102c-9.29-.51-24-1.36-36.85-1.36v27.88c11.94,0,21.52-.51,27.13-.85v22.44c-5.6-.34-15.19-.85-27.13-.85v29.24h13.71a206.27,206.27,0,0,0,25.65-1.87v23.63h-71.2a326.1,326.1,0,0,0,1.77-37.74Z"/><path class="cls-11" d="M648.32,78.85c20.93.17,32.87,16.32,32.87,35,0,15.3-8.84,27.2-17.69,32,13.56,33.66,18.28,47.27,22.41,54.41H648.32c-5.75-19.89-11.2-36.72-14.74-47.61h-4v31.11a124.14,124.14,0,0,0,1,16.49H596.87a325.77,325.77,0,0,0,1.77-37.74V116.59a325.76,325.76,0,0,0-1.77-37.74Zm-18.72,51a18,18,0,0,0,3.68.34c9,0,14.3-4.25,14.3-13.94,0-9.18-5.6-15-14.15-15a20.7,20.7,0,0,0-3.83.34Z"/><path class="cls-11" d="M688.86,139.54c0-42.5,24.17-63.08,45.7-63.08s45.7,20.57,45.7,63.08-24.17,63.08-45.7,63.08S688.86,182,688.86,139.54Zm34.49,0c0,26.69,4.86,40.63,11.2,40.63s11.2-13.94,11.2-40.63-4.86-40.63-11.2-40.63S723.35,112.85,723.35,139.54Z"/><path class="cls-11" d="M813.13,78.85q18.58,32.39,36.12,65.46h.29V116.59a325.75,325.75,0,0,0-1.77-37.74h24.47a325.76,325.76,0,0,0-1.77,37.74V162.5a325.77,325.77,0,0,0,1.77,37.74H847.62c-17.83-28.39-27.86-46.42-35.67-60.87h-.3V162.5a325.45,325.45,0,0,0,1.77,37.74H787.77a325.43,325.43,0,0,0,1.77-37.74V116.59a325.42,325.42,0,0,0-1.77-37.74Z"/><path class="cls-11" d="M915.44,78.85a325.1,325.1,0,0,0-1.77,37.74V162.5a325.11,325.11,0,0,0,1.77,37.74h-34.5a325.75,325.75,0,0,0,1.77-37.74V116.59a325.75,325.75,0,0,0-1.77-37.74Z"/></g></g></svg>